<?xml version="1.0" standalone="no"?>
<!DOCTYPE svg PUBLIC "-//W3C//DTD SVG 20010904//EN"
 "http://www.w3.org/TR/2001/REC-SVG-20010904/DTD/svg10.dtd">
<svg version="1.0" xmlns="http://www.w3.org/2000/svg"
 width="960.000000pt" height="960.000000pt" viewBox="0 0 960.000000 960.000000"
 preserveAspectRatio="xMidYMid meet">
<metadata>
Created by potrace 1.15, written by Peter Selinger 2001-2017
</metadata>
<g transform="translate(0.000000,960.000000) scale(0.100000,-0.100000)"
fill="#000000" stroke="none">
<path d="M6911 9408 c-46 -4 -91 -10 -100 -14 -9 -4 -36 -11 -61 -15 -100 -18
-115 -22 -125 -29 -5 -4 -30 -11 -55 -15 -24 -4 -54 -13 -65 -21 -11 -7 -22
-13 -25 -13 -3 0 -18 -5 -35 -11 -16 -6 -42 -12 -57 -13 -15 -1 -28 -5 -28 -9
0 -5 -7 -8 -15 -8 -8 0 -15 -4 -15 -10 0 -5 -5 -10 -10 -10 -17 0 -103 -42
-136 -67 -17 -13 -34 -23 -38 -23 -11 0 -111 -72 -119 -87 -4 -7 -13 -13 -20
-13 -7 0 -24 -11 -39 -25 -15 -14 -30 -25 -34 -25 -7 0 -74 -70 -105 -109 -11
-13 -19 -21 -19 -18 0 8 -111 -112 -142 -153 -15 -19 -43 -53 -62 -74 -20 -22
-38 -48 -42 -58 -3 -10 -10 -18 -15 -18 -5 0 -9 -6 -9 -14 0 -8 -6 -21 -14
-29 -17 -17 -56 -88 -56 -102 0 -6 -12 -22 -27 -36 -29 -26 -63 -66 -63 -74 0
-2 -11 -16 -24 -30 -14 -15 -23 -32 -20 -39 3 -7 -2 -18 -10 -25 -9 -7 -18
-29 -22 -50 -3 -20 -17 -60 -30 -89 -13 -29 -24 -57 -24 -62 0 -5 -16 -39 -35
-77 -19 -37 -35 -80 -35 -95 0 -16 -4 -28 -10 -28 -5 0 -10 -12 -10 -26 0 -14
-7 -32 -15 -40 -8 -8 -17 -31 -20 -52 -4 -20 -9 -44 -12 -52 -4 -8 -5 -20 -4
-26 1 -7 -5 -14 -13 -17 -9 -4 -12 -14 -9 -26 3 -12 1 -21 -3 -21 -14 0 -30
-47 -47 -130 -8 -41 -24 -110 -36 -152 -11 -42 -22 -96 -24 -119 -2 -24 -10
-45 -16 -47 -6 -2 -8 -8 -5 -14 10 -16 5 -119 -6 -133 -21 -26 -36 -238 -19
-281 4 -13 5 -24 0 -24 -9 0 -20 -67 -13 -75 2 -2 6 -30 9 -62 2 -32 8 -73 13
-92 6 -23 6 -39 -1 -48 -8 -9 -8 -26 0 -60 19 -80 20 -93 12 -115 -5 -14 -3
-32 5 -47 7 -14 11 -36 8 -48 -4 -13 -2 -23 4 -23 6 0 11 -8 11 -17 0 -34 8
-78 19 -113 6 -19 13 -57 16 -84 2 -26 9 -53 15 -59 6 -6 11 -19 11 -28 0 -10
6 -19 13 -22 9 -3 9 -8 -2 -21 -12 -14 -11 -20 9 -41 15 -16 23 -39 25 -69 2
-24 6 -50 11 -57 11 -18 7 -169 -6 -233 -6 -30 -9 -73 -7 -95 2 -22 1 -38 -3
-36 -4 2 -6 -11 -6 -30 1 -19 3 -35 7 -35 3 0 5 -33 4 -72 0 -40 6 -91 13
-113 8 -22 16 -49 18 -60 6 -31 26 -65 35 -59 5 3 6 -1 4 -9 -3 -7 15 -34 40
-60 27 -26 43 -51 39 -58 -5 -8 -9 -7 -15 2 -7 11 -9 10 -9 -3 0 -21 20 -34
29 -19 5 8 13 6 27 -5 17 -14 17 -15 1 -10 -13 4 -21 -2 -28 -21 -7 -19 -7
-29 0 -31 6 -2 9 -8 5 -13 -3 -5 0 -9 6 -9 6 0 8 -4 5 -10 -6 -10 9 -15 30
-10 5 1 2 -7 -6 -17 -9 -10 -15 -33 -14 -53 2 -34 2 -34 -13 -12 -16 25 -42
30 -42 7 0 -8 6 -15 13 -15 9 0 9 -2 -1 -9 -7 -4 -14 -18 -15 -29 -1 -12 -4
-22 -7 -22 -3 0 -12 -4 -20 -10 -12 -7 -9 -13 14 -35 l28 -25 -32 -11 c-27
-10 -30 -15 -25 -39 4 -19 2 -29 -9 -33 -8 -3 -17 -1 -20 6 -3 7 -3 0 0 -15 5
-21 2 -28 -9 -28 -10 0 -13 -6 -10 -21 4 -16 12 -20 29 -16 16 3 24 0 24 -10
0 -8 -6 -13 -12 -12 -43 5 -58 -2 -58 -26 0 -18 -5 -25 -19 -25 -14 0 -17 -6
-14 -23 3 -14 -2 -29 -13 -38 -11 -9 -15 -9 -10 -1 12 19 -16 14 -44 -9 -24
-20 -24 -21 -2 -16 18 4 22 1 22 -19 0 -15 -6 -24 -15 -24 -8 0 -15 -7 -15
-16 0 -10 -6 -14 -15 -10 -14 5 -20 -11 -16 -37 1 -4 -7 -3 -17 2 -16 9 -22 5
-38 -24 -18 -34 -18 -35 1 -50 16 -12 17 -14 2 -9 -13 5 -18 -1 -23 -24 -4
-22 -11 -29 -21 -25 -13 5 -13 3 -2 -15 9 -15 20 -20 32 -16 16 5 17 3 8 -15
-7 -12 -21 -21 -32 -21 -14 0 -18 -4 -12 -12 19 -32 8 -59 -32 -70 -48 -15
-183 -66 -211 -81 -17 -8 -36 -23 -43 -31 -8 -9 -19 -16 -25 -16 -18 0 -89
-38 -97 -52 -4 -6 -4 -19 1 -29 5 -9 7 -19 4 -22 -3 -2 2 -35 11 -71 8 -37 15
-78 15 -91 0 -26 -31 -87 -63 -122 -23 -26 -24 -69 -3 -134 35 -110 49 -203
42 -294 -4 -49 -9 -107 -11 -129 -2 -30 8 -59 48 -135 49 -97 50 -99 50 -192
0 -52 3 -101 8 -110 4 -8 3 -33 -2 -55 -14 -59 -18 -104 -8 -104 10 0 10 -98
0 -105 -14 -8 -26 11 -28 43 -1 32 -9 50 -16 41 -2 -2 2 -35 8 -74 12 -67 12
-71 -9 -87 -11 -10 -29 -18 -38 -18 -10 0 -18 -7 -18 -15 0 -8 -3 -15 -8 -15
-15 0 -34 -63 -38 -123 -2 -40 4 -90 16 -136 27 -106 11 -204 -39 -231 -12 -6
-19 -15 -16 -20 3 -4 0 -10 -6 -12 -11 -4 -13 -102 -3 -163 2 -16 7 -87 11
-157 6 -124 5 -128 -21 -183 -16 -31 -39 -63 -52 -72 -13 -8 -24 -20 -24 -25
0 -6 -11 -19 -25 -30 -14 -11 -25 -25 -25 -33 0 -14 -58 -132 -75 -152 -5 -7
-16 -19 -22 -27 -7 -8 -13 -21 -13 -29 0 -7 -4 -17 -10 -23 -5 -5 -12 -27 -16
-49 -3 -22 -8 -44 -11 -48 -9 -15 -3 -151 9 -204 l11 -53 597 0 598 0 21 49
c11 27 21 53 21 58 0 16 232 472 251 492 11 12 17 26 13 33 -4 7 -3 8 4 4 7
-4 14 4 18 21 3 15 8 35 11 43 10 23 10 28 12 59 1 20 7 30 21 34 17 4 24 -4
41 -44 12 -27 25 -49 30 -49 15 0 10 -53 -10 -110 -11 -30 -21 -73 -23 -95 -1
-22 -6 -42 -9 -45 -4 -3 -10 -34 -14 -70 -8 -78 -52 -341 -61 -364 -6 -15 51
-16 668 -16 l675 0 7 93 c5 50 10 513 12 1027 3 514 8 978 12 1030 4 52 3 151
-1 220 -9 122 -4 182 25 342 14 76 6 172 -15 196 -9 10 -17 32 -17 49 0 42
-58 121 -95 130 -5 1 -20 5 -31 8 -23 7 -22 12 -40 -123 -6 -52 -8 -53 -33
-47 -14 4 -48 9 -76 11 -169 16 -227 24 -247 35 -18 10 -19 13 -8 17 24 8 28
21 25 88 -4 74 -9 84 -38 84 -32 0 -130 -42 -148 -64 -13 -16 -19 -17 -37 -7
-30 16 -37 10 -57 -54 -14 -44 -17 -81 -13 -201 4 -122 2 -143 -9 -128 -7 9
-16 34 -19 53 -4 20 -17 49 -30 64 -22 26 -24 38 -24 126 l0 98 -29 0 c-22 0
-28 -4 -25 -16 2 -9 -4 2 -15 24 l-20 40 25 32 c23 30 24 35 10 49 -11 11 -16
36 -17 82 -1 37 -1 71 0 76 1 4 -3 14 -9 21 -5 6 -11 24 -12 38 -1 14 -6 23
-10 21 -11 -7 -18 14 -21 57 -3 42 -70 184 -125 267 -22 33 -43 71 -47 83 -4
12 -19 33 -34 47 -14 13 -18 19 -8 12 24 -18 29 -9 13 22 -12 23 -12 26 0 21
9 -3 14 2 14 16 0 13 6 21 18 21 16 1 16 2 -1 15 -13 9 -17 20 -12 35 4 11 2
26 -3 33 -5 7 -8 28 -6 47 2 19 6 81 8 137 3 57 12 124 22 150 9 26 17 53 18
58 3 9 6 20 23 63 3 9 6 20 5 24 -1 4 5 26 13 49 8 23 15 52 15 65 0 29 18 41
34 23 7 -8 23 -40 35 -71 13 -32 29 -62 37 -69 8 -6 14 -18 14 -26 0 -13 5
-21 40 -62 15 -17 20 -25 60 -86 33 -50 45 -67 55 -79 6 -6 22 -27 35 -46 14
-19 30 -42 37 -50 12 -14 163 -215 218 -290 33 -44 175 -190 186 -190 4 0 15
8 25 18 10 9 20 17 23 18 23 3 61 26 61 36 0 7 12 21 28 31 36 25 78 84 87
124 5 25 2 40 -14 62 -14 19 -18 32 -11 36 6 4 8 11 4 16 -3 5 -2 9 3 8 4 -1
19 -1 33 0 25 2 25 2 3 11 -13 5 -23 12 -23 14 0 3 7 3 15 0 8 -4 15 -1 15 5
0 6 -4 11 -8 11 -4 0 -8 11 -8 24 0 17 5 24 18 23 9 -1 20 -7 22 -14 3 -7 12
-10 21 -7 8 3 15 1 15 -5 0 -6 7 -11 16 -11 11 0 14 5 10 17 -4 10 -4 14 0 10
4 -4 18 3 30 14 l23 22 -4 -21 c-2 -15 0 -19 11 -15 7 3 12 8 9 13 -2 4 7 13
20 20 13 7 22 16 20 20 -6 9 58 60 74 60 6 0 11 6 11 14 0 7 18 28 40 47 38
32 52 59 30 59 -5 0 -9 6 -7 13 2 12 -33 18 -43 7 -3 -3 -15 -10 -27 -17 -16
-9 -23 -9 -25 -1 -3 7 -22 13 -44 14 -21 1 -31 -1 -22 -3 9 -2 15 -10 12 -18
-5 -11 -10 -11 -31 0 -17 9 -32 11 -43 5 -10 -5 -20 -7 -23 -4 -10 10 -122 22
-136 14 -15 -8 -50 6 -63 25 -4 6 -13 2 -22 -10 -11 -14 -15 -16 -16 -6 0 8
-3 12 -6 8 -4 -3 -21 5 -40 19 -18 14 -35 25 -38 25 -3 0 -13 2 -21 5 -8 4
-23 0 -33 -7 -15 -13 -16 -12 -3 4 12 15 11 17 -7 17 -11 0 -23 -6 -25 -12 -3
-7 -6 -3 -6 10 -1 29 -48 53 -61 32 -8 -12 -10 -12 -15 2 -4 9 -16 19 -28 22
-12 3 -32 16 -44 28 -12 13 -48 50 -82 83 -33 33 -63 72 -66 87 -4 17 -16 28
-31 32 -13 4 -24 11 -24 16 0 17 -64 70 -77 65 -12 -4 -17 7 -14 27 0 5 -5 7
-11 5 -8 -1 -12 7 -10 23 2 17 -7 34 -28 53 -16 16 -30 33 -30 38 0 5 -12 23
-27 40 -16 17 -36 44 -46 59 -18 28 -18 28 5 23 13 -4 20 -2 15 3 -5 5 -13 10
-18 10 -5 1 -13 2 -19 3 -5 0 -10 10 -10 21 0 11 -4 20 -10 20 -5 0 -10 -5
-10 -12 0 -15 -46 57 -99 157 -24 44 -46 85 -50 90 -17 22 -81 195 -96 256 -8
35 -15 85 -15 110 0 54 -6 60 -77 83 l-53 18 -2 61 c-1 34 -2 100 -2 147 l1
85 41 9 c51 11 59 36 37 116 -56 208 -65 310 -31 375 9 17 16 42 16 57 0 15 4
29 9 32 5 4 12 25 16 48 9 49 31 88 51 88 8 0 22 -9 32 -19 86 -94 82 -91 134
-91 32 0 60 7 76 18 25 16 52 18 292 17 184 -1 272 -5 287 -13 12 -7 67 -14
122 -16 l100 -4 15 47 c27 80 18 207 -19 284 -27 56 -150 171 -185 172 -8 1
-27 9 -41 18 -25 17 -55 24 -189 47 -123 22 -375 42 -394 31 -14 -7 -58 -9
-74 -3 -20 7 -3 112 18 112 4 0 10 17 13 38 4 20 14 44 24 53 32 29 50 55 57
84 4 15 22 43 41 62 19 19 34 36 34 39 1 2 7 14 15 27 7 12 20 47 27 77 7 30
21 62 31 72 10 9 18 23 18 32 0 8 5 18 10 21 6 3 10 13 10 21 0 8 12 33 28 56
15 22 32 48 37 56 6 9 15 22 20 30 35 48 230 229 270 249 16 9 45 29 63 44 18
16 41 29 50 29 10 0 42 16 72 36 30 20 60 37 65 39 6 1 23 7 38 13 15 7 39 15
53 18 13 3 27 10 30 15 3 5 14 9 25 9 10 0 19 4 19 9 0 20 214 31 335 17 39
-4 102 -9 140 -12 109 -7 170 -12 175 -14 3 -1 18 -1 33 0 15 1 35 -4 43 -10
8 -7 27 -10 43 -7 16 3 33 1 40 -6 9 -9 16 -9 31 1 24 14 64 16 55 2 -4 -6 2
-7 16 -2 11 5 48 4 80 -1 57 -9 66 -17 60 -51 -1 -4 6 -14 15 -20 10 -8 17
-31 20 -66 2 -29 8 -58 14 -64 5 -5 10 -36 10 -68 0 -36 4 -58 11 -58 6 0 9
-7 5 -15 -3 -8 -2 -14 2 -14 20 3 32 -3 32 -16 0 -8 5 -15 12 -15 9 0 9 -3 1
-11 -8 -8 -7 -18 3 -37 7 -14 11 -29 8 -34 -3 -4 6 -20 20 -35 15 -16 22 -31
17 -36 -9 -9 2 -42 39 -122 11 -22 24 -62 29 -90 29 -151 34 -175 41 -175 4 0
6 -11 5 -25 -2 -14 1 -27 6 -31 5 -3 7 -10 3 -15 -7 -13 11 -88 36 -144 9 -22
23 -76 30 -120 6 -44 16 -96 20 -115 5 -19 11 -57 15 -84 3 -27 8 -52 10 -55
2 -4 6 -67 10 -141 3 -74 9 -166 14 -205 8 -70 5 -92 -36 -312 -9 -51 -14 -96
-10 -100 4 -4 24 1 43 12 45 24 60 11 68 -64 4 -30 8 -55 9 -56 35 -17 57 -40
57 -59 0 -13 -14 -70 -31 -127 -17 -57 -33 -117 -36 -133 -6 -28 -7 -28 -57
-22 -28 3 -67 8 -87 12 l-36 5 -17 -113 c-19 -123 -33 -176 -66 -253 -38 -88
-83 -175 -92 -175 -4 0 -8 -5 -8 -11 0 -11 -79 -150 -90 -159 -16 -13 -60
-119 -64 -155 -9 -80 33 -182 90 -220 26 -17 28 -17 41 1 7 10 13 21 13 25 0
5 15 6 34 4 l34 -5 -11 36 c-10 32 -9 38 10 52 11 10 23 25 26 35 4 9 13 17
22 17 8 0 15 7 15 16 0 10 6 14 14 11 9 -4 17 1 20 11 3 10 18 25 34 34 37 22
69 58 52 58 -9 0 -6 8 8 23 12 13 22 26 22 30 0 13 93 127 103 127 6 0 7 3 4
6 -3 4 4 15 17 25 13 10 27 31 31 46 3 16 16 42 28 58 13 17 29 42 36 58 8 15
20 27 28 27 7 0 13 4 13 8 0 5 8 17 18 28 23 26 41 55 48 75 3 8 18 23 33 32
22 13 32 31 45 79 10 35 17 71 17 80 0 9 11 27 23 40 13 13 26 37 29 55 4 18
21 63 40 100 18 37 31 75 29 85 -2 9 2 19 7 23 6 3 11 15 11 25 0 10 9 34 19
52 14 23 19 48 17 85 -1 29 1 50 6 47 12 -7 10 10 -3 23 -12 12 -1 65 12 57 9
-5 12 7 13 61 1 18 6 29 13 28 13 -3 12 30 -5 144 -5 29 -5 50 -1 48 12 -8 17
34 8 74 -5 21 -8 61 -8 88 1 26 -4 73 -10 103 -6 30 -13 78 -16 105 -6 55 -12
102 -19 155 -3 19 -8 58 -11 85 -3 28 -8 70 -12 95 -3 25 -7 50 -7 55 -1 6 -6
19 -12 30 -6 11 -15 46 -18 78 -4 31 -11 57 -15 57 -3 0 -12 14 -18 30 -7 17
-7 30 -2 30 14 0 5 80 -14 120 -9 19 -28 96 -42 170 -14 74 -31 137 -36 141
-8 5 -8 12 0 27 8 15 7 23 -4 32 -8 7 -13 16 -10 20 8 13 -6 40 -18 33 -6 -4
-7 -1 -2 6 4 7 -1 22 -13 34 -20 22 -52 88 -67 137 -4 14 -16 32 -27 41 -10
10 -16 23 -12 32 3 9 2 22 -2 28 -5 9 -9 8 -14 -5 -4 -13 -11 -6 -30 31 -13
26 -29 52 -37 56 -7 4 -13 17 -13 27 0 10 -8 23 -17 29 -14 7 -15 12 -5 24 14
16 0 33 -17 22 -14 -8 -25 15 -13 27 13 13 3 40 -12 31 -7 -5 -7 -2 1 8 10 13
7 15 -21 16 -20 1 -43 10 -55 22 -35 35 -23 54 19 31 32 -17 34 8 3 35 -57 50
-83 80 -83 96 0 10 -7 16 -17 15 -12 0 -19 7 -21 21 -4 26 -44 57 -86 67 -33
8 -54 26 -49 43 3 7 -7 12 -24 11 -15 0 -41 7 -58 16 -16 9 -40 16 -51 16 -12
0 -24 7 -27 15 -4 8 -24 23 -47 35 -22 11 -40 25 -40 30 0 6 -7 10 -15 10 -8
0 -15 5 -15 10 0 6 -7 10 -15 10 -9 0 -18 7 -22 16 -3 8 -12 13 -20 10 -8 -3
-24 1 -37 9 -12 8 -26 12 -29 9 -4 -4 -9 1 -13 10 -3 9 -14 16 -23 16 -9 0
-24 9 -34 20 -9 11 -23 17 -32 14 -8 -4 -15 -1 -15 5 0 19 -17 12 -23 -9 -7
-28 -22 -25 -59 10 -17 17 -35 31 -39 31 -15 2 -23 5 -54 19 -16 7 -43 16 -60
20 -16 4 -29 12 -28 18 4 17 -34 34 -70 31 -18 -2 -38 0 -44 4 -6 4 -14 3 -18
-2 -4 -7 -15 -7 -32 0 -27 10 -117 9 -262 -3z m-824 -4718 c-3 -11 -2 -18 1
-16 9 5 26 -15 30 -34 2 -8 10 -22 18 -31 8 -8 14 -21 14 -28 0 -8 6 -11 16
-7 8 3 12 2 9 -4 -3 -6 1 -10 9 -10 9 0 16 -9 16 -20 0 -11 5 -20 11 -20 5 0
7 5 3 12 -4 7 -3 8 5 4 7 -5 9 -12 3 -19 -5 -7 -12 -22 -14 -34 -4 -16 -2 -20
8 -16 8 3 14 -1 14 -11 0 -9 8 -16 20 -16 19 0 20 -4 14 -37 -8 -47 -18 -60
-12 -16 4 29 2 32 -29 35 -19 2 -36 1 -39 -4 -7 -11 -34 2 -34 18 0 8 -5 14
-11 14 -6 0 -18 8 -27 18 -10 10 -12 11 -7 3 9 -12 7 -12 -12 -1 -12 8 -20 17
-17 21 2 4 -7 24 -21 45 -14 21 -22 40 -17 43 4 3 7 17 6 31 -3 32 5 62 15 56
4 -3 8 1 8 8 0 7 -6 13 -13 13 -7 0 -11 -4 -8 -8 2 -4 0 -10 -5 -13 -16 -11
-22 11 -6 24 8 7 15 9 15 6 0 -4 8 -2 18 3 24 14 25 14 19 -9z m-676 -2823
c-4 -60 -28 -237 -46 -337 -8 -47 -15 -86 -15 -86 0 -1 -10 -5 -22 -9 l-23 -7
22 -6 c22 -7 22 -8 8 -36 -8 -15 -15 -36 -15 -45 0 -10 -3 -21 -7 -24 -3 -4
-8 -19 -9 -34 -4 -32 -24 -73 -36 -73 -11 0 -10 24 2 36 6 6 13 48 15 95 3 46
6 91 6 99 5 79 25 166 41 182 10 10 16 24 12 29 -4 6 -1 15 7 19 10 7 10 11 0
23 -10 13 -9 16 3 19 14 3 14 6 1 32 -18 34 -18 36 -4 36 5 0 7 -4 4 -10 -3
-5 0 -7 7 -5 8 3 15 16 16 30 1 13 2 28 3 32 4 22 -2 43 -12 43 -6 0 -9 -9 -6
-20 3 -11 1 -20 -4 -20 -5 0 -9 14 -9 30 0 24 4 30 17 28 10 -2 18 4 19 12 2
31 4 34 16 22 7 -7 11 -31 9 -55z m655 -92 c15 -38 -136 -552 -158 -539 -10 6
-1 142 12 193 12 49 74 221 89 249 7 13 10 30 7 38 -3 8 -1 14 4 14 4 0 11 14
15 30 7 32 22 39 31 15z m-213 -587 c4 -12 5 -64 3 -116 -2 -76 -6 -96 -19
-104 -10 -5 -17 -20 -16 -36 1 -15 -6 -49 -16 -77 -10 -27 -17 -67 -16 -87 0
-21 -3 -38 -8 -38 -11 0 -21 25 -21 51 0 11 -4 18 -8 15 -4 -2 -7 23 -6 57 0
34 -3 67 -8 74 -11 14 -1 73 12 73 5 0 7 -8 4 -17 -5 -16 -4 -16 10 1 11 14
13 24 5 37 -6 13 -6 19 1 19 5 0 10 7 10 15 0 8 4 15 9 15 5 0 6 15 1 33 -5
23 -3 37 7 46 8 7 13 22 10 32 -5 17 5 27 29 28 7 1 14 -9 17 -21z m-580 -11
c-4 -7 -6 -21 -5 -33 3 -17 -5 -74 -24 -184 -10 -56 -11 -100 -2 -100 5 0 6
-5 3 -10 -5 -8 -11 -8 -19 -1 -17 14 -21 -56 -4 -76 10 -12 9 -18 -7 -29 -10
-8 -13 -14 -7 -14 7 0 12 -4 12 -10 0 -5 -7 -10 -15 -10 -8 0 -15 -9 -15 -21
0 -11 -4 -18 -8 -15 -9 5 7 166 17 166 9 0 1 103 -9 114 -5 4 -4 21 1 36 6 15
9 31 8 36 -4 20 2 34 13 32 6 -2 16 21 22 57 13 67 23 88 37 79 5 -3 6 -11 2
-17z"/>
<path d="M7815 7440 c-107 -11 -179 -22 -190 -29 -5 -4 -26 -8 -45 -10 -19 -1
-59 -9 -89 -16 -30 -8 -58 -12 -62 -9 -4 2 -22 -4 -40 -15 -21 -13 -42 -18
-59 -14 -20 3 -31 0 -41 -14 -12 -16 -25 -25 -59 -38 -3 -1 -18 -5 -35 -9 -16
-4 -37 -13 -46 -19 -20 -15 -42 -79 -45 -129 -1 -21 -7 -77 -14 -125 -11 -79
-11 -87 5 -99 12 -9 25 -10 42 -3 37 14 43 11 43 -16 0 -31 17 -39 115 -55 44
-7 85 -17 92 -22 7 -6 19 -4 31 3 16 10 26 10 48 0 19 -8 29 -9 34 -1 4 6 15
8 25 4 12 -5 16 -4 12 3 -4 6 0 14 9 17 11 4 15 2 11 -7 -3 -8 3 -14 16 -15
15 -1 18 2 9 7 -10 6 -10 11 3 21 12 10 19 10 27 2 7 -7 8 -12 4 -12 -5 0 -3
-7 4 -15 10 -11 17 -12 33 -3 32 17 70 21 200 22 100 1 117 3 114 16 -12 41
-11 45 10 48 12 2 22 10 21 20 0 9 3 27 7 40 4 12 3 22 -2 22 -5 0 -9 9 -10
21 -3 40 -33 67 -129 119 -54 29 -119 68 -146 87 -28 20 -53 32 -60 27 -10 -5
-10 -4 -1 6 8 9 9 19 3 31 -14 24 15 54 70 75 92 33 146 45 192 41 43 -4 47
-3 38 13 -7 14 -69 46 -74 38 -1 -1 -32 -4 -71 -8z"/>
<path d="M7307 6313 c-3 -5 -2 -43 2 -87 5 -57 11 -82 24 -91 9 -7 17 -17 17
-24 0 -6 8 -19 18 -29 64 -69 101 -113 107 -132 4 -12 24 -48 46 -80 41 -61
48 -99 28 -143 -21 -46 -108 -60 -264 -43 -113 13 -290 12 -306 0 -22 -17
-178 -13 -189 5 -13 22 24 68 60 76 16 4 33 11 36 17 4 5 21 16 38 24 43 20
70 37 79 51 10 16 125 103 136 103 5 0 27 18 50 41 56 54 54 85 -4 82 -79 -4
-138 -13 -151 -24 -8 -6 -14 -9 -14 -5 0 3 -24 -3 -52 -13 -54 -19 -164 -22
-177 -4 -3 4 -19 15 -36 23 -16 8 -34 21 -38 27 -11 17 -83 17 -90 0 -5 -14
-9 -14 -94 -2 -74 11 -88 34 -80 136 4 43 2 81 -2 84 -18 10 -39 -7 -57 -46
-21 -47 -90 -122 -104 -114 -6 3 -10 -1 -10 -9 0 -8 -10 -21 -22 -27 -12 -6
-32 -24 -46 -40 -13 -16 -30 -29 -38 -29 -9 0 -12 -5 -8 -12 5 -8 2 -9 -9 -5
-9 3 -19 2 -22 -3 -4 -6 -1 -10 5 -10 6 0 10 -8 8 -17 -2 -11 2 -17 10 -15 8
1 11 -2 7 -8 -3 -6 -10 -8 -14 -5 -17 10 -81 13 -75 4 3 -6 12 -8 20 -5 9 3
14 -1 15 -12 0 -9 2 -28 3 -41 l3 -24 -23 26 c-12 14 -25 23 -30 19 -4 -4 -4
-1 0 6 10 17 -2 32 -19 26 -8 -4 -12 -10 -9 -15 3 -5 -1 -6 -9 -3 -18 6 -39
-19 -35 -43 2 -13 -2 -17 -17 -15 -11 2 -18 2 -15 0 3 -2 13 -10 23 -18 10 -7
17 -9 15 -4 -2 5 2 9 7 9 6 0 10 -10 9 -22 0 -24 31 -33 38 -12 2 6 9 -1 16
-16 7 -14 8 -24 3 -20 -12 7 -21 -7 -22 -37 -2 -43 10 -70 45 -106 20 -19 38
-43 41 -53 4 -11 11 -19 17 -19 5 0 7 -7 4 -16 -4 -9 -2 -22 2 -28 5 -6 12
-27 15 -47 3 -21 14 -47 24 -60 42 -52 98 -100 107 -92 3 4 6 2 6 -4 0 -11 42
-12 50 -1 11 14 86 -29 97 -55 9 -20 20 -27 40 -27 22 0 25 -2 13 -10 -13 -8
-13 -10 1 -10 9 0 19 -7 23 -15 3 -9 18 -15 36 -15 16 0 30 -3 30 -7 0 -8 48
-33 62 -33 5 0 4 9 -2 20 -6 11 -15 20 -21 20 -15 0 -39 26 -32 34 4 3 21 6
39 6 18 0 36 5 39 10 8 13 62 13 70 0 4 -6 11 -8 16 -5 5 4 9 3 9 -2 0 -12
143 -10 147 2 2 6 -23 10 -62 10 -61 1 -98 15 -81 32 12 12 157 16 168 5 6 -6
5 -17 -3 -30 -7 -12 -10 -24 -7 -27 14 -14 120 19 150 47 16 15 39 27 51 26
12 0 31 3 41 7 11 5 17 5 14 -1 -7 -10 87 -10 113 1 10 3 52 45 95 93 42 48
85 90 95 94 9 4 20 11 23 17 4 6 13 8 22 4 8 -3 23 2 33 11 16 15 19 15 31 1
7 -8 20 -15 29 -15 19 0 71 62 71 84 0 8 9 20 19 26 28 15 47 107 26 130 -8 9
-15 27 -15 40 0 13 -11 38 -25 56 -14 18 -25 37 -25 42 0 4 -11 18 -25 30 -14
13 -23 27 -20 32 3 6 1 10 -4 10 -6 0 -11 6 -11 13 0 20 -30 77 -40 77 -8 0
-75 67 -136 138 -16 17 -34 32 -40 32 -7 0 -15 11 -18 24 -3 14 -20 30 -40 40
-39 18 -43 19 -49 9z m-2 -741 c7 -17 16 -21 32 -17 27 6 37 -20 28 -76 -7
-42 -34 -65 -63 -54 -11 4 -25 -4 -43 -26 l-26 -32 -23 26 -24 27 -26 -25
c-21 -20 -38 -26 -71 -26 -24 0 -116 -2 -203 -4 -88 -2 -166 0 -174 4 -9 5
-28 5 -43 1 -19 -6 -35 -3 -57 10 -16 10 -43 20 -58 22 -21 2 -34 13 -51 43
-22 38 -32 115 -15 115 4 0 25 -16 47 -35 21 -20 39 -34 39 -33 1 2 6 17 12
33 13 41 45 44 78 8 17 -18 26 -23 26 -13 0 8 11 28 23 44 21 25 28 28 59 22
20 -4 47 -16 61 -26 l26 -20 55 27 c50 24 59 26 89 15 25 -9 48 -9 87 -2 48 9
56 8 74 -9 21 -20 21 -20 45 5 31 32 81 30 96 -4z"/>
<path d="M8425 4163 c18 -74 9 -163 -25 -248 -20 -48 -38 -133 -59 -276 -30
-200 -103 -427 -155 -486 -28 -32 -36 -43 -36 -52 0 -14 -65 -49 -104 -57 -54
-10 -202 33 -226 65 -3 4 -34 25 -70 46 -36 22 -80 50 -99 62 -19 13 -43 23
-55 22 -12 0 -15 -3 -8 -6 20 -8 14 -20 -12 -25 -28 -6 -40 18 -24 46 14 24
-30 63 -59 54 -5 -2 -7 -6 -6 -10 2 -4 -4 -5 -12 -2 -17 7 -19 -4 -6 -25 5 -8
3 -38 -5 -74 -9 -36 -12 -78 -8 -104 5 -35 3 -48 -12 -64 -20 -22 -130 -79
-153 -79 -16 0 -20 16 57 -210 78 -226 102 -302 156 -491 25 -86 63 -194 86
-240 22 -46 48 -107 56 -136 9 -29 21 -53 27 -53 7 0 4 -5 -5 -11 -10 -5 -18
-21 -18 -35 0 -21 -4 -25 -22 -22 -16 2 -27 15 -38 45 -9 24 -21 48 -27 54 -6
6 -9 17 -6 25 2 7 -2 28 -10 46 -29 65 -57 144 -76 217 -11 41 -23 77 -27 80
-5 5 0 -25 12 -70 3 -10 18 -97 34 -195 16 -99 31 -190 34 -204 2 -14 10 -68
16 -120 6 -52 25 -176 41 -275 36 -228 76 -502 84 -580 3 -33 15 -100 25 -150
29 -133 77 -489 83 -612 0 -10 190 -13 914 -13 l913 0 -5 758 c-2 416 -4 791
-3 832 1 41 2 473 2 960 l1 885 -32 78 c-40 97 -51 179 -30 230 l16 37 -37 19
c-20 10 -68 26 -107 34 -483 108 -658 168 -874 299 -35 22 -75 44 -89 49 -23
9 -24 8 -17 -18z"/>
<path d="M7090 2728 c0 -98 -6 -226 -14 -285 -9 -65 -17 -261 -22 -488 -8
-468 -7 -646 8 -795 20 -208 1 -1003 -28 -1133 l-6 -27 303 0 302 0 -6 32
c-24 136 -68 401 -82 488 -9 58 -27 159 -40 225 -42 212 -92 517 -130 800 -14
105 -33 237 -42 295 -8 58 -17 114 -18 125 -3 24 -25 167 -30 198 -2 12 -11
65 -20 117 -33 194 -130 560 -161 605 -12 17 -14 -5 -14 -157z"/>
</g>
</svg>
