<?xml version="1.0" standalone="no"?>
<!DOCTYPE svg PUBLIC "-//W3C//DTD SVG 20010904//EN"
 "http://www.w3.org/TR/2001/REC-SVG-20010904/DTD/svg10.dtd">
<svg version="1.0" xmlns="http://www.w3.org/2000/svg"
 width="1500.000000pt" height="370.000000pt" viewBox="0 0 1500.000000 370.000000"
 preserveAspectRatio="xMidYMid meet">

<g transform="translate(0.000000,370.000000) scale(0.100000,-0.100000)"
fill="#000000" stroke="none">
<path d="M0 1850 l0 -1850 7500 0 7500 0 0 1850 0 1850 -277 0 -278 0 -12 -26
c-7 -15 -10 -31 -7 -35 3 -5 1 -9 -4 -9 -6 0 -13 7 -16 16 -5 13 -9 13 -32 -5
-33 -26 -55 -28 -26 -2 24 20 31 41 8 22 -15 -12 -98 -12 -91 0 3 3 18 9 35
12 16 4 30 11 30 17 0 7 -165 10 -498 10 -419 0 -499 -2 -499 -14 0 -21 107
-50 156 -42 25 4 41 2 41 -4 0 -6 -28 -10 -64 -10 -69 0 -99 -16 -44 -23 31
-4 31 -5 10 -12 -17 -6 -20 -10 -11 -16 7 -4 19 -3 25 2 7 5 16 9 20 8 5 -1
23 -1 39 1 26 1 27 3 10 10 -15 6 -9 9 27 9 28 1 48 -4 51 -11 4 -10 6 -10 6
0 1 6 10 12 21 12 10 0 24 8 29 17 6 10 11 12 11 6 0 -17 108 -8 129 11 28 24
59 29 69 10 8 -14 19 -16 63 -12 l54 6 -40 -14 -40 -14 70 4 c70 5 57 -4 -27
-18 -21 -4 -38 -11 -38 -16 0 -9 15 -14 33 -11 5 1 6 -3 2 -9 -3 -5 1 -10 9
-10 10 0 13 -6 9 -17 -5 -12 -3 -14 7 -8 8 5 11 4 6 -3 -3 -6 2 -15 11 -21 16
-9 16 -10 -4 -11 -14 0 -23 6 -23 15 0 24 -49 30 -86 10 -18 -10 -35 -24 -38
-31 -6 -15 -45 -18 -83 -8 -14 4 -20 11 -16 18 8 11 9 16 12 36 0 6 9 10 18
10 12 0 14 3 6 11 -7 7 -28 7 -71 -1 -33 -6 -88 -12 -121 -15 -34 -2 -66 -7
-71 -10 -6 -3 -10 -1 -10 4 0 6 5 11 11 11 5 0 7 5 3 11 -4 8 -10 5 -17 -7 -6
-11 -14 -21 -18 -24 -11 -8 -84 -5 -97 4 -8 5 -10 1 -6 -9 5 -11 2 -16 -7 -15
-8 1 -25 2 -38 1 -21 -1 -23 -4 -17 -36 4 -19 3 -35 -2 -35 -17 0 -37 -196
-36 -350 1 -163 15 -243 55 -322 22 -43 16 -50 -13 -13 -24 30 -34 31 -41 5
-4 -17 -12 -20 -44 -17 -42 3 -68 -14 -59 -39 3 -8 2 -12 -4 -9 -6 3 -10 2
-10 -2 0 -5 -18 -9 -41 -10 -22 -1 -51 -9 -65 -18 -13 -8 -24 -11 -24 -6 0 9
67 37 105 43 13 2 19 10 17 21 -2 9 4 20 13 23 8 3 15 16 16 28 0 11 3 15 6 8
7 -18 23 -15 23 4 0 34 -68 83 -151 109 -44 14 -92 25 -107 25 -36 0 -47 9
-61 50 -14 41 -10 45 83 91 32 15 63 35 70 43 6 7 27 19 47 25 22 7 39 20 42
31 6 24 31 25 72 4 19 -10 31 -11 33 -5 2 6 8 9 13 5 5 -3 9 1 9 9 0 10 -11
13 -37 12 -41 -2 -73 10 -86 31 -4 8 -13 14 -20 14 -7 0 -18 14 -25 30 -8 17
-18 28 -23 25 -5 -4 -17 -1 -26 4 -11 6 -13 11 -5 11 10 0 10 3 0 14 -15 16
-32 11 -22 -6 5 -8 -1 -9 -17 -5 -13 4 -35 7 -49 7 -24 0 -24 0 -4 14 11 8 33
16 49 18 17 1 31 8 31 13 4 26 17 55 26 55 5 0 6 -6 2 -12 -4 -8 -3 -10 2 -5
5 5 9 12 9 15 0 15 17 32 26 26 5 -3 8 -2 7 3 -5 14 36 60 49 56 16 -6 53 36
46 53 -3 7 -12 13 -21 12 -36 -3 -52 3 -52 17 0 12 -15 13 -97 8 -87 -5 -107
-10 -177 -45 -43 -22 -85 -37 -93 -34 -8 3 -12 2 -9 -2 3 -5 -15 -18 -40 -30
-49 -24 -58 -26 -50 -13 3 5 -1 12 -9 15 -9 3 -18 0 -21 -7 -2 -7 -15 -13 -27
-14 -12 0 -16 1 -9 4 6 3 10 9 6 14 -11 18 -23 8 -26 -23 -2 -20 -8 -32 -15
-30 -7 1 -13 -4 -13 -10 0 -9 -3 -8 -10 2 -5 9 -5 19 1 26 14 17 -14 71 -41
79 -14 4 -40 -4 -78 -25 -63 -35 -190 -122 -229 -157 l-25 -22 -24 26 c-13 14
-24 34 -24 45 0 27 -36 95 -55 102 -45 17 -115 -6 -136 -46 -14 -26 -38 -116
-47 -178 -6 -34 -10 -41 -17 -30 -18 28 -79 66 -170 108 -132 60 -165 72 -191
72 -12 0 -26 4 -29 10 -3 6 -19 10 -35 10 -16 0 -41 5 -55 10 -22 9 -37 6 -81
-16 -30 -15 -57 -31 -60 -36 -3 -5 -13 -7 -22 -3 -9 3 -13 3 -10 -1 4 -4 -9
-25 -28 -48 -20 -22 -58 -86 -86 -142 -86 -173 -79 -273 27 -373 69 -66 147
-102 233 -109 39 -3 79 -13 97 -24 16 -10 38 -18 48 -18 10 0 15 -4 12 -10 -3
-5 2 -10 12 -11 10 0 13 -3 7 -5 -13 -5 -80 22 -89 36 -4 6 -11 7 -17 4 -6 -4
-8 -2 -5 3 4 7 -12 10 -46 10 -28 0 -65 2 -81 6 -16 3 -25 3 -21 -1 3 -4 10
-7 13 -7 4 0 17 -10 30 -23 12 -12 17 -22 12 -22 -6 0 -9 -6 -8 -12 4 -16
-100 -12 -119 3 -7 6 -16 8 -22 5 -5 -4 -13 3 -16 15 -7 21 16 49 23 29 2 -6
11 -10 20 -10 15 0 15 -2 2 -10 -16 -10 -16 -10 32 -14 17 -1 16 66 -1 72 -8
3 -11 0 -7 -6 3 -6 2 -14 -4 -17 -6 -4 -9 -2 -8 3 2 5 -13 22 -32 38 -19 16
-31 24 -27 17 4 -7 0 -17 -10 -23 -16 -10 -16 -11 4 -7 13 3 26 1 29 -5 4 -5
-7 -8 -27 -6 -25 2 -37 10 -49 33 -52 102 -152 212 -250 276 l-24 16 42 38
c41 36 52 63 15 34 -10 -7 3 7 30 32 56 54 58 70 16 153 -36 72 -56 96 -67 80
-10 -16 -52 -28 -52 -15 0 13 -67 15 -72 3 -4 -10 -173 -75 -205 -78 -35 -4
-21 8 62 50 84 43 167 63 200 48 30 -14 67 -4 63 16 -8 40 -154 39 -242 -1
-52 -24 -101 -75 -137 -142 -9 -16 -29 -109 -45 -206 l-27 -175 -46 -13 c-93
-25 -120 -25 -148 0 -39 37 -63 94 -70 164 -7 73 9 125 38 125 9 0 34 -16 55
-35 20 -19 38 -35 40 -35 2 0 1 13 -2 28 -5 26 -3 28 46 41 60 15 80 40 88
107 4 37 -1 58 -23 105 -16 32 -37 61 -47 65 -10 3 -18 10 -18 16 0 6 -12 8
-27 5 -19 -4 -34 1 -48 13 -19 18 -23 18 -49 5 -25 -14 -28 -13 -22 1 6 15 0
16 -41 10 -26 -3 -52 -11 -57 -16 -6 -6 -18 -10 -28 -10 -29 0 -90 -92 -102
-153 -2 -12 -9 -33 -15 -47 -11 -24 -11 -24 -7 5 9 52 -32 -45 -55 -133 -16
-61 -19 -95 -15 -162 11 -155 67 -308 132 -359 102 -80 253 -31 370 120 11 15
29 29 41 33 21 7 22 5 16 -62 -7 -83 8 -134 43 -151 14 -6 30 -11 36 -11 6 0
20 -8 30 -17 14 -13 21 -14 30 -5 7 7 20 12 29 12 11 0 19 12 24 33 5 25 8 28
14 14 19 -50 71 67 71 160 0 41 3 53 15 53 21 0 66 -24 124 -65 81 -57 155
-83 220 -76 35 4 71 30 64 47 -4 10 0 12 11 8 21 -8 20 -33 -1 -41 -21 -8 -48
-33 -37 -33 17 0 -17 -24 -38 -27 -28 -4 -32 -9 -25 -28 4 -10 20 -15 47 -15
38 0 40 -1 30 -21 -15 -26 -40 -36 -51 -18 -6 10 -9 6 -9 -13 0 -16 5 -28 10
-28 6 0 10 -9 10 -20 0 -11 -4 -20 -10 -20 -15 0 -31 -70 -19 -92 5 -10 7 -34
3 -54 -5 -26 -2 -40 11 -54 12 -13 14 -20 6 -20 -8 0 -10 -7 -6 -21 4 -13 2
-25 -5 -29 -9 -6 -8 -14 4 -32 10 -16 15 -38 12 -59 -2 -19 0 -56 4 -83 6 -37
4 -54 -6 -64 -12 -12 -11 -18 6 -40 22 -27 20 -69 -3 -84 -7 -4 -5 -14 5 -30
9 -14 13 -30 9 -37 -5 -7 -6 -24 -3 -38 3 -18 1 -24 -7 -19 -16 11 -14 -20 4
-38 17 -16 20 -36 6 -36 -15 0 -24 -40 -12 -54 5 -6 8 -22 5 -33 -3 -12 -1
-38 6 -58 8 -23 8 -40 2 -48 -17 -22 -23 -77 -8 -77 24 0 27 -30 6 -52 -11
-12 -16 -24 -11 -28 12 -7 4 -65 -12 -100 -8 -15 -28 -30 -53 -39 -36 -13 -43
-12 -68 5 -37 23 -90 20 -179 -12 -37 -13 -69 -24 -72 -24 -3 0 -11 0 -19 0
-8 0 -28 -11 -44 -25 -27 -23 -38 -25 -124 -25 -88 0 -96 2 -105 22 -8 18 -10
10 -11 -40 -1 -72 -7 -88 -28 -71 -11 9 -20 9 -37 1 -13 -7 -64 -10 -126 -8
-123 3 -127 6 -136 104 -3 37 -11 91 -16 120 -9 47 -5 158 7 203 8 30 63 44
164 41 52 -2 99 -7 104 -12 6 -6 23 -10 38 -10 25 0 28 3 28 34 0 18 -3 54 -6
78 l-6 45 -167 2 c-175 2 -278 20 -267 47 3 7 -2 18 -10 24 -8 7 -14 19 -14
26 0 8 -4 14 -9 14 -5 0 -11 9 -14 20 -3 11 -18 25 -34 32 -15 7 -39 19 -53
29 -14 9 -37 19 -51 22 -24 6 -38 29 -39 64 0 21 46 46 67 35 10 -5 55 -5 103
-1 47 4 117 4 155 -1 39 -5 133 -15 210 -21 196 -17 193 -17 243 -24 30 -4 42
-3 37 4 -3 6 -16 11 -28 11 -12 0 -55 6 -97 14 -201 39 -250 44 -497 50 -100
3 -191 10 -202 15 -11 6 -21 23 -23 38 -6 51 -116 89 -203 71 -48 -10 -65 -30
-65 -76 0 -18 -4 -42 -10 -52 -12 -23 -85 -47 -167 -56 -85 -9 -110 -1 -122
39 -7 26 -9 27 -10 9 -2 -56 -11 -59 -143 -60 -151 -1 -184 10 -193 66 -4 20
-9 44 -13 52 -6 16 -9 28 -11 47 -2 26 -55 40 -138 37 -94 -3 -103 -6 -101
-37 0 -12 -2 -49 -6 -82 -9 -76 -33 -100 -108 -110 -103 -12 -103 -12 -115
-58 -7 -23 -17 -68 -23 -99 -9 -43 -18 -62 -38 -77 l-27 -19 23 -40 c12 -22
22 -53 22 -68 1 -16 7 -51 14 -78 7 -27 11 -63 9 -80 -5 -39 -5 -55 0 -86 4
-24 -21 -92 -40 -111 -11 -11 -150 -32 -203 -31 -19 1 -68 7 -109 15 -83 15
-114 40 -114 94 0 15 1 88 2 162 1 73 0 135 -2 138 -3 2 -1 19 5 36 6 18 11
98 12 179 l2 147 -54 20 c-30 12 -86 26 -126 32 -39 5 -123 19 -186 30 -64 10
-135 19 -158 19 -23 0 -42 3 -42 6 0 9 68 101 120 164 99 117 155 197 221 315
38 68 69 127 69 132 0 4 28 18 63 31 34 12 84 31 110 42 l48 19 6 -30 c6 -32
64 -89 90 -89 9 0 2 9 -18 23 -41 27 -72 86 -56 105 8 10 13 7 23 -16 13 -33
49 -62 76 -62 19 0 24 -15 8 -25 -20 -13 -9 -23 17 -16 15 4 35 21 45 39 16
29 16 35 4 55 -11 17 -15 61 -15 182 -1 88 -5 177 -10 197 -10 42 -68 121 -82
112 -5 -3 -12 2 -15 11 -7 17 -9 17 -91 1 -35 -7 -65 -26 -107 -68 -43 -43
-32 -49 38 -18 50 21 51 20 60 -30 6 -32 5 -33 -5 -10 -10 21 -13 22 -16 7 -3
-9 -9 -15 -14 -11 -13 8 -90 -28 -86 -40 2 -6 13 -12 25 -14 l22 -3 -21 -29
c-12 -16 -27 -26 -35 -23 -43 16 -59 164 -25 238 26 59 42 68 100 60 45 -6
104 -34 74 -35 -7 0 -13 -5 -13 -11 0 -8 5 -8 15 1 8 7 13 16 10 20 -3 4 6 15
20 24 35 23 41 58 17 93 -10 15 -34 51 -51 80 -32 51 -71 83 -119 98 -45 13
-197 -91 -228 -158 -9 -21 -20 -33 -23 -28 -4 6 -16 2 -30 -8 -17 -13 -25 -31
-29 -67 -3 -30 -12 -55 -24 -65 -10 -9 -18 -21 -18 -28 0 -31 -17 -4 -35 56
-13 44 -21 59 -23 44 -2 -14 -9 -21 -17 -17 -8 3 -17 0 -21 -6 -4 -5 -9 -6
-13 -2 -3 5 -16 15 -28 21 -20 11 -24 10 -37 -10 -45 -69 -69 -175 -81 -353
-2 -45 -9 -92 -13 -105 -7 -18 -4 -32 15 -60 35 -53 106 -79 119 -44 9 21 35
19 41 -4 4 -16 9 -17 32 -8 35 13 57 66 42 96 -14 25 -14 122 -1 157 13 34 23
25 27 -27 6 -59 40 -146 67 -166 12 -10 21 -23 19 -29 -5 -16 53 -63 85 -70
48 -10 59 -17 35 -21 -13 -3 -20 -10 -17 -17 3 -8 -18 -56 -46 -107 -56 -101
-72 -124 -63 -90 3 12 9 24 14 27 16 9 9 34 -9 34 -27 0 -54 -55 -56 -116 -3
-47 -9 -61 -47 -110 -24 -31 -51 -64 -59 -73 -8 -9 -31 -37 -50 -61 -19 -25
-49 -60 -67 -78 l-32 -32 -123 -5 c-117 -4 -180 -11 -293 -34 -94 -19 -160
-29 -167 -25 -4 2 -9 0 -13 -6 -3 -5 -23 -10 -44 -10 -22 0 -44 -6 -51 -15 -6
-7 -32 -17 -56 -21 -28 -4 -48 -13 -54 -25 -6 -10 -11 -80 -11 -156 -1 -76 -5
-151 -9 -168 l-8 -30 -2 30 c-1 17 -2 39 -1 50 2 17 -3 15 -27 -12 l-29 -32
-11 24 c-7 16 -17 23 -26 19 -10 -4 -48 26 -109 88 -77 76 -97 103 -111 145
-15 44 -25 58 -68 85 -27 18 -56 33 -64 33 -8 0 -66 49 -130 110 -63 60 -127
116 -142 125 -56 34 -60 51 -49 180 5 47 4 119 0 161 l-9 76 29 11 c17 7 33
23 40 41 6 17 17 31 24 31 7 0 13 4 13 9 0 5 9 13 20 16 11 4 19 12 18 19 -2
7 12 27 30 44 17 16 32 39 32 51 0 27 2 27 88 -9 55 -24 107 -35 215 -49 157
-20 187 -20 235 -1 31 12 33 15 28 46 -4 18 -2 35 4 39 5 3 10 17 10 31 0 21
-5 24 -35 24 -25 0 -35 4 -35 16 0 9 -9 18 -20 21 -22 6 -27 22 -7 24 6 1 3 4
-9 7 -31 10 -304 146 -304 152 0 3 36 42 79 86 77 81 78 82 60 105 -16 22 -16
24 4 51 11 15 17 31 13 35 -8 8 -15 -2 -51 -72 -27 -52 -51 -60 -25 -8 22 45
40 103 40 126 0 9 7 17 15 17 9 0 12 -6 8 -16 -4 -12 -1 -15 12 -13 24 5 27
67 4 80 -9 4 -19 6 -21 3 -3 -2 -11 2 -18 11 -17 20 -44 20 -36 0 3 -9 -1 -18
-9 -21 -8 -4 -13 -9 -11 -13 2 -3 -8 -6 -23 -7 -38 -1 -36 21 5 61 38 39 34
51 -10 28 -42 -21 -77 -51 -163 -136 -46 -45 -76 -68 -82 -62 -6 6 -15 41 -21
80 -14 89 -21 98 -77 89 l-43 -6 0 40 c0 40 -19 60 -43 45 -7 -4 -8 0 -2 13 4
10 11 41 15 67 4 27 13 53 20 57 37 23 -53 30 -386 30 -261 0 -344 -3 -344
-12 0 -9 -3 -9 -12 0 -15 15 -388 17 -388 2 0 -5 -8 -10 -17 -10 -15 0 -16 2
-3 10 10 6 -103 10 -327 10 -222 0 -343 -4 -343 -10 0 -5 -5 -10 -11 -10 -5 0
-7 5 -4 10 4 6 -5 10 -20 10 -22 0 -24 -3 -15 -19 15 -28 12 -51 -5 -51 -17 0
-39 46 -30 61 4 5 -732 9 -1824 9 l-1831 0 0 -1850z m4917 1798 c7 -5 14 -5
18 2 10 16 21 12 34 -14 12 -22 15 -23 39 -10 14 7 29 11 34 8 11 -7 -23 -52
-46 -58 -29 -8 -8 -29 23 -21 18 4 23 3 16 -4 -6 -5 -27 -11 -47 -13 -42 -2
-88 31 -88 65 0 14 -5 18 -20 14 -11 -3 -25 2 -32 10 -10 12 -9 18 6 28 18 13
39 11 63 -7z m8813 2 c0 -5 -10 -10 -22 -10 -19 0 -20 2 -8 10 19 13 30 13 30
0z m-10742 -6 c36 -10 25 -19 -28 -22 -39 -1 -50 1 -50 13 0 16 36 20 78 9z
m1462 -3 c0 -12 -20 -25 -27 -18 -7 7 6 27 18 27 5 0 9 -4 9 -9z m9113 -6 c0
-6 -7 -11 -16 -13 -12 -3 -15 1 -11 13 7 17 25 17 27 0z m615 3 c-3 -8 -29
-12 -71 -13 -78 -1 -76 12 3 18 30 2 59 4 63 5 5 1 7 -3 5 -10z m35 -41 c9 -3
17 -11 17 -17 0 -6 -8 -10 -17 -8 -10 2 -17 -3 -15 -9 3 -16 -3 -16 -29 -3
-10 6 -19 17 -19 25 0 16 32 37 40 26 3 -4 13 -10 23 -14z m-11743 -2 c0 -8
-4 -15 -10 -15 -5 0 -10 7 -10 15 0 8 5 15 10 15 6 0 10 -7 10 -15z m2275 5
c3 -5 1 -10 -4 -10 -6 0 -11 5 -11 10 0 6 2 10 4 10 3 0 8 -4 11 -10z m8742 4
c-3 -3 -12 -4 -19 -1 -8 3 -5 6 6 6 11 1 17 -2 13 -5z m-9756 -16 c64 0 66 0
77 -31 10 -26 9 -33 -3 -39 -8 -5 -12 -15 -9 -22 8 -20 -34 -28 -45 -9 -14 25
-61 9 -61 -21 0 -13 -7 -27 -16 -30 -22 -9 -24 -8 -24 9 0 8 5 15 10 15 6 0
10 11 10 24 0 13 5 26 12 28 7 3 6 7 -5 11 -11 4 -17 1 -17 -8 0 -11 -5 -13
-17 -6 -10 5 -26 12 -35 15 -11 3 -15 12 -11 28 10 49 12 51 41 43 15 -4 57
-7 93 -7z m-1306 -18 c3 -5 -1 -10 -9 -10 -9 0 -16 5 -16 10 0 6 4 10 9 10 6
0 13 -4 16 -10z m2012 -14 c-3 -8 -2 -29 3 -46 8 -29 7 -31 -13 -24 -12 3 -30
13 -39 21 -15 14 -20 12 -47 -17 -27 -30 -31 -32 -46 -16 -37 36 12 79 88 77
20 0 37 4 37 9 0 6 5 10 11 10 6 0 9 -6 6 -14z m9926 7 c-7 -2 -19 -2 -25 0
-7 3 -2 5 12 5 14 0 19 -2 13 -5z m-10462 -38 c-1 -15 -24 -12 -29 3 -3 9 2
13 12 10 10 -1 17 -7 17 -13z m117 4 c25 -9 30 -16 30 -41 -1 -39 -20 -45 -68
-23 -33 15 -37 20 -25 32 8 7 12 20 9 28 -7 18 11 19 54 4z m10391 -31 c-13
-5 -19 -12 -14 -16 18 -12 16 -32 -2 -25 -12 5 -15 2 -10 -10 3 -9 1 -19 -5
-23 -13 -8 -40 25 -32 38 3 5 -2 16 -12 23 -18 13 -17 14 9 16 39 2 45 3 52
11 4 4 14 4 23 1 12 -5 10 -8 -9 -15z m-10207 -18 c-2 -13 1 -20 6 -16 6 3 14
-3 17 -15 8 -23 -2 -40 -13 -23 -4 6 -20 15 -37 21 -38 12 -45 40 -13 52 32
13 44 8 40 -19z m300 8 c16 -30 20 -56 9 -62 -13 -8 -27 14 -34 52 -7 37 7 43
25 10z m9164 7 c9 -8 12 -15 7 -15 -4 0 1 -7 11 -15 11 -8 16 -15 12 -15 -4 0
-1 -7 8 -15 8 -8 19 -15 25 -15 5 0 14 -8 20 -17 9 -17 10 -17 16 -1 4 10 11
15 16 12 8 -5 13 9 10 29 0 4 4 7 9 7 23 0 -5 -95 -50 -168 -37 -59 -36 -59
-81 33 -13 27 -48 74 -76 104 -29 30 -50 57 -46 60 3 3 8 0 10 -6 6 -18 23
-16 23 1 0 8 12 19 28 24 38 14 41 14 58 -3z m44 -15 c0 -5 -2 -10 -4 -10 -3
0 -8 5 -11 10 -3 6 -1 10 4 10 6 0 11 -4 11 -10z m306 -41 c5 -31 11 -39 28
-39 20 -1 20 -1 2 -15 -38 -29 5 -52 56 -31 9 4 29 6 45 3 27 -4 27 -5 6 -12
-13 -4 -23 -13 -23 -20 0 -15 -50 -17 -68 -2 -10 8 -16 7 -21 -2 -5 -8 -17 21
-30 73 -24 98 -24 99 -11 91 5 -3 13 -24 16 -46z m-10386 20 c0 -5 -4 -9 -10
-9 -5 0 -10 7 -10 16 0 8 5 12 10 9 6 -3 10 -10 10 -16z m280 11 c0 -5 -5 -10
-11 -10 -5 0 -7 5 -4 10 3 6 8 10 11 10 2 0 4 -4 4 -10z m6201 -47 c-52 -78
-74 -149 -81 -263 l-7 -95 -1 96 c-3 128 28 227 91 297 38 42 37 22 -2 -35z
m3370 39 c-7 -2 -18 1 -23 6 -8 8 -4 9 13 5 13 -4 18 -8 10 -11z m49 8 c0 -5
-7 -10 -15 -10 -8 0 -15 5 -15 10 0 6 7 10 15 10 8 0 15 -4 15 -10z m-552 -7
c-10 -2 -28 -2 -40 0 -13 2 -5 4 17 4 22 1 32 -1 23 -4z m-8658 -18 c19 12 23
-27 6 -56 -9 -16 -14 -33 -11 -39 3 -6 -1 -7 -9 -4 -9 3 -13 10 -10 15 3 5 0
9 -6 9 -6 0 -20 9 -31 19 l-20 19 23 24 c15 16 27 21 35 15 7 -5 17 -6 23 -2z
m5740 -15 c-12 -17 -34 -66 -50 -109 -28 -77 -29 -85 -27 -233 2 -84 7 -162
12 -172 6 -13 5 -17 -3 -12 -17 10 -34 110 -35 210 -1 71 4 107 22 161 27 79
56 142 79 168 24 27 25 20 2 -13z m3805 0 c-4 -12 -9 -19 -12 -17 -3 3 -2 15
2 27 4 12 9 19 12 17 3 -3 2 -15 -2 -27z m-3843 -2 c-6 -7 -22 -35 -36 -63
-14 -27 -26 -44 -26 -37 0 16 28 72 48 95 17 19 30 24 14 5z m-4525 -160 c-2
-29 -3 -6 -3 52 0 58 1 81 3 53 2 -29 2 -77 0 -105z m-2544 135 c-7 -2 -19 -2
-25 0 -7 3 -2 5 12 5 14 0 19 -2 13 -5z m2697 -14 c0 -11 -4 -18 -10 -14 -5 3
-7 12 -3 20 7 21 13 19 13 -6z m428 9 c-6 -18 -28 -21 -28 -4 0 9 7 16 16 16
9 0 14 -5 12 -12z m-2050 -25 c-4 -39 -28 -42 -28 -4 0 21 5 31 16 31 11 0 14
-8 12 -27z m8427 17 c-3 -5 -11 -10 -16 -10 -6 0 -7 5 -4 10 3 6 11 10 16 10
6 0 7 -4 4 -10z m-4731 -10 c-3 -3 -11 -5 -17 -5 -7 0 -11 -8 -9 -16 1 -9 -5
-22 -13 -29 -18 -15 -20 1 -3 18 9 9 9 12 0 12 -18 0 -92 -75 -92 -93 0 -10
-7 -17 -15 -17 -9 0 -15 -6 -13 -13 2 -6 -7 -26 -18 -42 -12 -17 -24 -37 -27
-45 -3 -9 -6 -5 -6 10 0 14 3 32 9 40 6 9 5 17 -2 21 -17 11 61 139 85 139 6
0 2 -10 -9 -22 -24 -27 -47 -78 -36 -78 5 0 26 25 48 55 21 30 50 59 64 64 27
9 63 10 54 1z m6673 -12 c-3 -8 -6 -5 -6 6 -1 11 2 17 5 13 3 -3 4 -12 1 -19z
m-17 -18 c0 -16 5 -30 11 -30 7 0 9 -11 6 -27 -3 -17 3 -42 14 -65 10 -20 19
-40 19 -43 0 -13 -27 -3 -39 14 -8 11 -20 17 -27 14 -14 -5 -14 28 1 39 12 9
15 67 4 74 -12 7 -11 54 1 54 6 0 10 -13 10 -30z m-1910 16 c0 -9 -40 -13 -46
-5 -3 5 6 9 20 9 14 0 26 -2 26 -4z m-6504 -22 c-4 -9 0 -24 9 -34 13 -15 10
-18 -35 -41 -27 -13 -50 -27 -50 -31 0 -17 -30 -7 -30 10 0 14 -2 15 -10 2 -5
-8 -11 -12 -14 -9 -9 8 104 119 121 119 10 0 13 -6 9 -16z m-1796 2 c0 -2 -7
-7 -16 -10 -8 -3 -12 -2 -9 4 6 10 25 14 25 6z m47 -2 c-3 -3 -12 -4 -19 -1
-8 3 -5 6 6 6 11 1 17 -2 13 -5z m-317 -16 c0 -4 -6 -8 -14 -8 -8 0 -17 4 -20
8 -2 4 4 8 15 8 10 0 19 -4 19 -8z m214 -25 c-17 -17 -18 -17 -11 0 4 10 7 24
7 30 0 8 3 8 11 0 9 -9 7 -16 -7 -30z m6686 27 c0 -5 -24 -9 -52 -8 -58 1
-136 -29 -197 -76 -19 -14 -39 -26 -44 -26 -30 0 63 64 140 96 58 24 153 33
153 14z m1616 -2 c4 -7 3 -10 -1 -5 -5 4 -20 0 -34 -10 l-26 -16 19 21 c22 25
32 27 42 10z m138 -13 c3 -8 13 -15 22 -15 15 0 16 -9 8 -92 -5 -51 -9 -139
-9 -194 l0 -101 -40 32 c-22 17 -71 51 -110 75 -112 68 -110 65 -63 108 22 19
49 54 60 76 30 60 39 70 50 54 7 -10 8 -10 7 2 -1 8 -1 23 0 34 1 15 4 16 15
6 12 -9 17 -7 28 9 15 25 24 26 32 6z m-7017 -27 c-3 -8 -6 -5 -6 6 -1 11 2
17 5 13 3 -3 4 -12 1 -19z m2159 -11 c-15 -10 -38 -36 -51 -55 -14 -20 -25
-32 -25 -26 0 20 81 114 92 108 7 -4 0 -15 -16 -27z m3214 -13 c-6 -16 -23
-42 -38 -57 -33 -34 -133 -97 -156 -97 -39 0 -6 31 96 88 42 24 62 43 75 72
20 43 40 39 23 -6z m2387 9 c-3 -10 -5 -4 -5 12 0 17 2 24 5 18 2 -7 2 -21 0
-30z m-2627 17 c-8 -5 -19 -10 -25 -10 -5 0 -3 5 5 10 8 5 20 10 25 10 6 0 3
-5 -5 -10z m85 -18 c-3 -3 -11 0 -18 7 -9 10 -8 11 6 5 10 -3 15 -9 12 -12z
m53 -18 c-4 -3 -12 5 -18 18 -12 22 -12 22 6 6 10 -10 15 -20 12 -24z m-6988
22 c0 -3 -4 -8 -10 -11 -5 -3 -10 -1 -10 4 0 6 5 11 10 11 6 0 10 -2 10 -4z
m6810 -1 c0 -2 -10 -9 -22 -15 -22 -11 -22 -10 -4 4 21 17 26 19 26 11z m3701
-12 c13 -16 12 -17 -3 -4 -10 7 -18 15 -18 17 0 8 8 3 21 -13z m-3602 -9 c22
-8 42 -23 45 -31 7 -18 -10 -43 -30 -43 -8 0 -14 -4 -14 -8 0 -8 -52 -42 -64
-42 -3 0 -6 8 -6 19 0 13 10 21 33 27 l32 8 -43 3 c-23 3 -40 8 -37 14 4 5 1
9 -4 9 -6 0 -11 7 -11 15 0 8 5 15 10 15 6 0 9 3 9 8 -5 27 22 29 80 6z
m-6399 -14 c5 7 9 0 12 -19 2 -17 2 -31 -2 -31 -7 0 -31 46 -29 58 0 4 3 1 6
-7 4 -10 7 -10 13 -1z m9813 -10 c7 0 6 -5 -3 -11 -11 -8 -6 -9 20 -5 30 5 32
5 11 -4 -14 -6 -21 -16 -17 -25 3 -8 1 -17 -4 -20 -6 -4 -10 3 -10 14 0 14 -5
19 -15 15 -8 -4 -15 -2 -15 4 0 6 -3 18 -7 28 -5 14 -3 16 11 11 10 -4 23 -7
29 -7z m-11682 -25 c-11 -14 -23 -39 -26 -55 -4 -17 -11 -32 -15 -35 -14 -9
18 77 37 97 24 27 27 22 4 -7z m-444 -22 c-3 -10 -5 -4 -5 12 0 17 2 24 5 18
2 -7 2 -21 0 -30z m2033 30 c0 -5 -8 -17 -17 -28 -14 -18 -15 -18 -9 -2 3 10
6 23 6 28 0 5 5 9 10 9 6 0 10 -3 10 -7z m6500 -7 c0 -8 -4 -17 -10 -21 -6 -4
-6 -15 1 -32 5 -14 7 -40 4 -57 -2 -17 -10 -73 -16 -123 -7 -51 -16 -93 -21
-93 -10 0 -10 80 2 200 7 71 6 96 -3 102 -8 5 -6 12 8 22 25 19 35 20 35 2z
m-3104 -78 c3 -134 21 -274 40 -306 9 -16 35 -41 57 -56 45 -29 43 -33 -6 -12
-65 28 -84 61 -101 176 -26 182 -27 198 -16 205 5 3 10 19 10 34 0 22 7 41 14
41 1 0 2 -37 2 -82z m3160 -21 c-2 -7 -5 -2 -5 11 -1 12 -5 22 -11 22 -5 0
-10 17 -9 38 l0 37 15 -48 c8 -27 13 -54 10 -60z m3724 77 c0 -14 -4 -23 -9
-20 -5 3 -7 15 -4 26 7 28 13 25 13 -6z m50 -10 c0 -8 -4 -12 -10 -9 -15 9
-12 -11 3 -24 10 -7 17 -7 24 0 8 8 13 8 17 0 11 -17 -3 -31 -30 -31 -14 0
-34 -5 -45 -10 -13 -8 -19 -7 -19 0 0 6 -4 8 -10 5 -5 -3 -10 -17 -10 -31 0
-15 -6 -24 -15 -24 -8 0 -15 -4 -15 -10 0 -5 -5 -10 -11 -10 -6 0 -9 8 -7 17
2 9 7 15 11 12 12 -5 40 49 32 61 -4 6 1 7 11 3 13 -5 16 -3 11 10 -4 12 -2
14 11 10 9 -4 20 -11 24 -17 5 -7 8 -4 8 6 0 9 -4 20 -10 23 -5 3 -10 11 -10
16 0 6 4 8 9 4 5 -3 12 -1 16 5 9 15 15 12 15 -6z m-3740 -4 c0 -5 -2 -10 -4
-10 -3 0 -8 5 -11 10 -3 6 -1 10 4 10 6 0 11 -4 11 -10z m981 -10 c63 -19 139
-63 139 -79 0 -12 -76 -84 -137 -129 l-53 -39 -72 20 c-40 10 -75 21 -77 23
-2 1 6 18 17 36 11 18 28 62 37 98 9 36 21 71 27 78 15 17 46 15 119 -8z
m-7241 -5 c0 -20 10 -19 27 3 13 15 13 15 3 -5 -13 -28 -26 -29 -40 -3 -7 14
-7 20 0 20 5 0 10 -7 10 -15z m6117 -7 c-3 -8 -6 -5 -6 6 -1 11 2 17 5 13 3
-3 4 -12 1 -19z m2596 15 c-7 -2 -19 -2 -25 0 -7 3 -2 5 12 5 14 0 19 -2 13
-5z m1058 -15 c12 2 15 -4 11 -28 -4 -28 3 -36 31 -31 4 0 7 -6 7 -14 0 -8 5
-15 10 -15 6 0 10 -4 10 -10 0 -5 -9 -10 -21 -10 -15 0 -19 5 -15 15 4 10 -1
15 -14 15 -11 0 -20 7 -20 15 0 17 -16 20 -25 5 -3 -5 -2 -10 2 -10 5 0 14 -9
21 -21 8 -12 9 -18 4 -15 -6 3 -9 -5 -8 -18 1 -18 4 -22 13 -14 18 14 66 -20
57 -41 -4 -9 -7 -25 -7 -36 -1 -23 -26 -46 -44 -40 -18 6 -23 -22 -6 -37 9 -7
18 -12 20 -10 11 8 23 0 22 -15 0 -11 -3 -13 -6 -5 -6 15 -29 16 -39 0 -4 -6
-3 -8 3 -5 6 4 13 1 16 -7 4 -10 -3 -11 -34 -6 -22 4 -43 11 -47 15 -4 4 5 5
21 3 21 -4 27 -1 27 13 0 11 -4 19 -10 19 -5 0 -10 -5 -10 -12 0 -6 -2 -9 -5
-7 -8 8 7 49 16 43 9 -5 1 51 -11 76 -4 8 -7 39 -6 68 1 28 -1 52 -5 52 -4 0
-3 17 1 37 5 20 6 42 4 47 -3 6 0 4 8 -4 7 -9 20 -14 29 -12z m-8694 -10 c-3
-8 -6 -5 -6 6 -1 11 2 17 5 13 3 -3 4 -12 1 -19z m-2454 2 c-12 -5 -27 -19
-33 -30 -6 -12 -14 -19 -18 -16 -9 9 39 56 57 55 11 0 8 -3 -6 -9z m6924 -82
c-2 -18 -4 -6 -4 27 0 33 2 48 4 33 2 -15 2 -42 0 -60z m4280 67 c8 -22 -6
-33 -17 -15 -13 20 -12 30 0 30 6 0 13 -7 17 -15z m-11580 -17 c-3 -8 -6 -5
-6 6 -1 11 2 17 5 13 3 -3 4 -12 1 -19z m7840 0 c-3 -8 -6 -5 -6 6 -1 11 2 17
5 13 3 -3 4 -12 1 -19z m114 -68 l-9 -55 -1 66 c0 36 2 69 7 73 12 13 13 -25
3 -84z m-6581 35 l-8 -40 -1 36 c0 20 2 39 6 42 11 11 11 4 3 -38z m3200 -50
c-6 -30 -16 -55 -22 -55 -5 0 -8 6 -5 14 3 7 8 35 12 62 4 27 9 56 13 64 12
30 13 -30 2 -85z m42 45 c-6 -16 -10 -19 -14 -9 -3 8 -1 25 5 39 13 32 22 4 9
-30z m4633 -7 c8 -42 49 -217 60 -248 5 -15 3 -14 -8 4 l-14 24 -12 -33 c-6
-18 -14 -31 -17 -27 -3 3 0 15 6 27 9 16 9 25 1 33 -8 8 -11 6 -11 -6 0 -9 -5
-17 -11 -17 -6 0 -9 -6 -6 -13 3 -8 2 -19 -3 -26 -6 -10 -12 -8 -26 7 -11 11
-30 19 -44 17 -14 -1 -28 2 -31 8 -4 5 -10 0 -13 -11 -5 -13 -12 -19 -22 -15
-9 3 -22 -3 -31 -16 -9 -14 -21 -20 -30 -16 -14 5 -14 3 -2 -12 8 -9 9 -14 3
-10 -7 4 -17 0 -23 -7 -8 -10 -9 -16 -1 -21 5 -3 10 -1 10 6 0 7 6 4 14 -6 8
-11 12 -24 9 -28 -3 -5 -9 -4 -13 3 -4 7 -12 10 -18 6 -6 -3 -15 2 -21 11 -10
17 -10 17 -11 -2 -1 -11 -4 -14 -7 -7 -2 6 -12 12 -20 12 -10 0 -13 -6 -9 -16
3 -8 2 -12 -4 -9 -18 11 -10 35 15 47 14 6 25 15 25 19 0 5 11 14 24 21 49 26
216 190 216 212 -1 18 -5 17 -35 -16 -20 -21 -37 -38 -39 -38 -13 0 5 35 32
63 31 31 41 57 24 57 -5 0 -21 -13 -37 -30 -16 -16 -31 -28 -33 -25 -6 5 89
112 100 114 4 1 10 -16 13 -36z m-9848 5 c-3 -8 -6 -5 -6 6 -1 11 2 17 5 13 3
-3 4 -12 1 -19z m7871 -68 c12 -51 8 -66 -8 -26 -13 36 -24 119 -11 91 4 -11
13 -40 19 -65z m559 48 c-3 -7 -5 -2 -5 12 0 14 2 19 5 13 2 -7 2 -19 0 -25z
m3963 22 c0 -5 -8 -13 -17 -18 -14 -9 -15 -12 -2 -24 8 -8 21 -17 29 -20 15
-5 22 -87 8 -89 -21 -4 -68 -4 -68 0 0 5 34 30 42 31 3 0 9 -8 11 -17 4 -17 5
-17 6 0 1 21 -28 35 -38 18 -4 -6 -15 -9 -24 -5 -11 4 -19 0 -23 -10 -9 -23
-23 -10 -17 17 4 17 3 19 -6 7 -6 -8 -14 -15 -18 -15 -4 -1 -18 -6 -29 -13
-18 -9 -24 -9 -34 3 -11 13 -10 14 4 9 11 -4 16 -1 16 11 0 9 -4 13 -10 10 -6
-4 -7 2 -1 17 4 13 17 24 27 25 18 3 17 2 -1 -5 -18 -8 -17 -9 8 -14 22 -4 27
-1 27 13 0 11 5 19 11 19 8 0 8 5 -1 15 -10 12 -10 15 1 15 11 0 11 2 -1 10
-8 5 -12 10 -7 10 4 0 16 -5 26 -12 15 -9 24 -8 43 5 27 19 38 21 38 7z
m-3931 -70 c-10 -66 -19 -89 -19 -52 0 27 21 124 26 120 2 -2 -1 -33 -7 -68z
m-3083 -45 c4 -47 3 -67 -3 -60 -6 6 -13 41 -17 79 -3 43 -2 66 4 60 5 -5 12
-40 16 -79z m7044 75 c0 -5 -2 -10 -4 -10 -3 0 -8 5 -11 10 -3 6 -1 10 4 10 6
0 11 -4 11 -10z m-11813 -32 c-3 -7 -5 -2 -5 12 0 14 2 19 5 13 2 -7 2 -19 0
-25z m10790 0 c-3 -8 -6 -5 -6 6 -1 11 2 17 5 13 3 -3 4 -12 1 -19z m-9441
-54 c-8 -32 -15 -51 -15 -41 -1 22 20 109 25 104 3 -2 -2 -30 -10 -63z m5951
34 c-3 -7 -5 -2 -5 12 0 14 2 19 5 13 2 -7 2 -19 0 -25z m2325 -13 c16 -14 26
-25 23 -25 -4 0 -20 11 -37 25 -16 14 -26 25 -23 25 4 0 20 -11 37 -25z
m-1552 -17 c0 -6 -6 -5 -15 2 -8 7 -15 14 -15 16 0 2 7 1 15 -2 8 -4 15 -11
15 -16z m-3449 -5 c0 -10 4 -39 8 -65 7 -45 -2 -68 -12 -30 -13 46 -18 112 -8
112 6 0 11 -8 12 -17z m589 -33 c0 -20 -2 -22 -10 -10 -5 8 -10 26 -10 40 0
20 2 22 10 10 5 -8 10 -26 10 -40z m6255 41 c3 -5 1 -12 -5 -16 -5 -3 -10 1
-10 9 0 18 6 21 15 7z m-6939 -63 c-3 -15 -1 -30 4 -33 6 -3 10 -16 9 -28 0
-21 -1 -21 -8 -3 -7 19 -8 19 -13 -2 -4 -12 -11 -22 -18 -22 -7 0 -9 8 -4 22
3 12 6 44 5 71 -1 44 1 48 15 36 10 -9 14 -22 10 -41z m3575 35 c13 -16 12
-17 -3 -4 -10 7 -18 15 -18 17 0 8 8 3 21 -13z m963 6 c-3 -6 -34 -29 -68 -51
-33 -21 -66 -49 -73 -61 -9 -16 -12 -18 -13 -6 0 20 25 43 99 91 64 42 65 42
55 27z m-6166 -109 c0 -32 -1 -33 -8 -10 -4 14 -8 48 -8 75 l0 50 9 -40 c4
-22 8 -56 7 -75z m2272 84 c6 -14 10 -27 10 -30 0 -2 -21 -4 -46 -4 l-45 0 21
30 c26 37 47 38 60 4z m2737 -6 c-3 -8 -6 -5 -6 6 -1 11 2 17 5 13 3 -3 4 -12
1 -19z m3563 5 c0 -10 -5 -25 -10 -33 -7 -11 -10 -7 -10 18 0 17 5 32 10 32 6
0 10 -8 10 -17z m-4174 -81 c-5 -5 -26 59 -25 77 0 9 7 -4 14 -29 8 -24 13
-46 11 -48z m4524 84 c0 -3 -4 -8 -10 -11 -5 -3 -10 -1 -10 4 0 6 5 11 10 11
6 0 10 -2 10 -4z m-4485 -43 c9 -20 14 -41 11 -47 -3 -11 -15 13 -30 62 -12
36 2 25 19 -15z m4445 7 c0 -3 -9 -6 -20 -6 -22 0 -28 22 -7 29 11 4 26 -10
27 -23z m-6906 -6 c3 -8 2 -12 -4 -9 -6 3 -10 10 -10 16 0 14 7 11 14 -7z
m2956 -20 c-12 -31 -12 -34 -1 -34 5 0 11 14 15 32 3 17 9 29 12 26 3 -4 1
-32 -5 -64 -6 -32 -11 -73 -11 -91 0 -51 -18 -39 -23 15 l-3 47 -2 -52 c-1
-30 2 -53 8 -53 6 0 10 -6 10 -14 0 -8 7 -17 16 -20 22 -9 26 -8 18 5 -14 23
-15 85 -2 157 16 98 33 94 23 -5 -11 -101 -8 -155 7 -164 7 -4 9 -11 6 -15
-12 -11 -59 6 -84 31 -24 24 -30 21 -18 -10 8 -21 56 -45 91 -45 l28 -1 -26
-14 c-33 -18 -59 -11 -84 23 -22 30 -24 98 -5 187 6 28 13 60 16 73 2 13 9 20
14 17 6 -3 6 -15 0 -31z m115 18 c-3 -3 -11 0 -18 7 -9 10 -8 11 6 5 10 -3 15
-9 12 -12z m-3178 -49 c-3 -10 -5 -2 -5 17 0 19 2 27 5 18 2 -10 2 -26 0 -35z
m469 20 c-10 -10 -19 5 -10 18 6 11 8 11 12 0 2 -7 1 -15 -2 -18z m-3909 -5
c-3 -8 -6 -5 -6 6 -1 11 2 17 5 13 3 -3 4 -12 1 -19z m1600 -10 c-3 -7 -5 -2
-5 12 0 14 2 19 5 13 2 -7 2 -19 0 -25z m5023 22 c0 -5 -4 -10 -10 -10 -5 0
-10 5 -10 10 0 6 5 10 10 10 6 0 10 -4 10 -10z m3033 -2 c12 -6 54 -37 92 -68
39 -32 80 -63 93 -69 12 -6 22 -17 22 -24 0 -8 -3 -8 -8 -2 -20 29 -106 74
-134 71 -16 -2 -26 -1 -23 2 10 11 -16 30 -36 25 -15 -4 -18 -2 -13 11 5 12 2
15 -10 10 -9 -3 -13 -10 -10 -15 3 -5 -6 -13 -19 -18 -14 -6 -29 -23 -35 -40
-6 -18 -22 -35 -36 -41 -13 -5 -29 -17 -34 -27 -6 -10 -13 -15 -17 -11 -9 9
31 48 49 48 8 0 21 17 29 38 34 86 52 122 60 122 5 0 18 -5 30 -12z m440 -18
c-3 -11 -9 -17 -15 -14 -5 3 -4 12 3 20 16 19 18 18 12 -6z m357 10 c0 -5 -4
-10 -10 -10 -5 0 -10 5 -10 10 0 6 5 10 10 10 6 0 10 -4 10 -10z m-11243 -6
c-3 -3 -12 -4 -19 -1 -8 3 -5 6 6 6 11 1 17 -2 13 -5z m2869 -15 c43 -11 115
-26 159 -34 72 -11 75 -13 32 -14 -52 -1 -209 31 -260 53 -47 21 -21 19 69 -5z
m1864 15 c0 -11 -34 -33 -50 -33 -10 -1 -6 6 10 19 26 20 40 25 40 14z m42
-16 c-7 -7 -12 -8 -12 -2 0 14 12 26 19 19 2 -3 -1 -11 -7 -17z m4623 12 c8
-13 -15 -13 -35 0 -12 8 -11 10 7 10 12 0 25 -4 28 -10z m932 -37 c-3 -10 -5
-2 -5 17 0 19 2 27 5 18 2 -10 2 -26 0 -35z m-5693 21 c3 -8 -2 -26 -12 -39
-23 -32 -39 -32 -18 0 24 37 9 30 -35 -15 -22 -22 -44 -40 -51 -40 -7 0 12 25
42 55 30 30 57 55 61 55 4 0 10 -7 13 -16z m-492 -131 c12 -15 4 -43 -13 -43
-6 0 -8 7 -5 16 4 9 1 23 -5 30 -8 9 -8 33 -3 76 l9 63 3 -65 c2 -35 8 -70 14
-77z m2858 125 c-14 -5 -40 -16 -58 -24 -35 -15 -70 -19 -58 -6 8 7 113 40
131 41 6 0 -1 -5 -15 -11z m170 2 c0 -5 -10 -15 -22 -21 -23 -12 -23 -12 -4
10 21 23 26 26 26 11z m1270 6 c0 -2 -7 -7 -16 -10 -8 -3 -12 -2 -9 4 6 10 25
14 25 6z m2805 -15 c-3 -6 -11 -11 -17 -11 -6 0 -6 6 2 15 14 17 26 13 15 -4z
m-4140 -5 c12 -12 12 -15 -1 -20 -9 -3 -25 -6 -37 -6 -20 0 -20 0 -1 19 23 24
22 24 39 7z m107 -8 c-6 -6 -15 -8 -19 -4 -4 4 -1 11 7 16 19 12 27 3 12 -12z
m1851 -26 c22 -34 155 -75 215 -66 17 3 40 0 52 -6 13 -7 20 -7 20 0 0 5 16
10 35 10 29 0 35 4 35 21 0 29 17 20 42 -21 l22 -35 -23 20 c-16 14 -22 15
-19 5 2 -10 -4 -14 -19 -13 -15 2 -23 -3 -23 -12 0 -8 -7 -15 -15 -15 -8 0
-14 5 -12 11 2 11 -83 20 -120 12 -13 -3 -23 -11 -23 -19 0 -8 -6 -11 -15 -8
-11 4 -13 2 -10 -9 4 -10 -2 -16 -20 -19 -29 -6 -45 10 -24 23 11 7 9 9 -8 9
-12 0 -24 -6 -27 -12 -3 -7 -3 -3 0 10 8 33 -3 57 -32 70 -19 9 -24 9 -23 -1
4 -21 -13 -47 -30 -47 -12 0 -10 5 9 20 15 12 19 20 11 20 -8 0 -20 8 -28 18
-13 16 -14 16 -8 -4 3 -13 -1 -26 -10 -34 -8 -7 -12 -16 -9 -21 3 -5 1 -9 -5
-9 -16 0 -22 18 -9 23 10 4 10 7 0 15 -7 5 -10 16 -6 25 3 9 4 17 1 17 -3 0
-11 -16 -17 -36 -10 -30 -10 -38 1 -45 10 -6 8 -9 -8 -9 -13 0 -23 -5 -23 -11
0 -8 -4 -8 -12 -2 -7 6 -26 8 -42 6 -21 -3 -36 3 -57 23 -16 15 -29 32 -29 36
0 5 13 -5 29 -21 27 -27 32 -29 68 -19 34 8 42 16 58 55 11 25 28 56 38 70 19
23 20 24 41 6 11 -10 25 -24 29 -31z m1795 30 c17 -15 19 -21 9 -31 -9 -10 -8
-12 7 -9 10 1 21 -2 23 -8 5 -16 -38 -26 -54 -12 -11 9 -10 13 4 24 17 13 16
15 -7 34 -14 11 -20 20 -14 20 6 0 20 -8 32 -18z m-6618 -7 c0 -8 0 -18 -1
-21 -1 -12 76 -65 111 -75 28 -9 46 -8 74 1 21 7 40 10 43 7 7 -8 -67 -27
-105 -27 -40 0 -90 27 -98 52 -3 10 -10 16 -15 13 -5 -4 -9 -5 -9 -3 0 2 -4
18 -9 36 -6 20 -6 32 0 32 5 0 9 -7 9 -15z m481 -3 c-13 -24 -51 -58 -51 -45
0 6 9 22 21 37 23 30 45 36 30 8z m2646 -14 c-3 -7 -5 -2 -5 12 0 14 2 19 5
13 2 -7 2 -19 0 -25z m1417 -8 l7 -25 -15 25 c-17 28 -21 50 -7 35 5 -6 12
-21 15 -35z m2426 30 c0 -5 -5 -10 -11 -10 -5 0 -7 5 -4 10 3 6 8 10 11 10 2
0 4 -4 4 -10z m-4180 -7 c0 -10 -69 -53 -130 -82 -47 -23 -34 -8 21 22 51 28
26 31 -30 3 -62 -32 -87 -33 -102 -3 -9 18 -9 20 2 10 16 -16 61 -17 75 -3 13
13 124 58 147 59 9 1 17 -2 17 -6z m1585 -14 c0 -20 -29 -17 -33 3 -2 11 3 16
15 14 10 -2 18 -9 18 -17z m2475 11 c0 -5 -5 -10 -11 -10 -5 0 -7 5 -4 10 3 6
8 10 11 10 2 0 4 -4 4 -10z m40 -11 c0 -5 -7 -9 -15 -9 -15 0 -20 12 -9 23 8
8 24 -1 24 -14z m146 9 c4 -6 3 -8 -4 -4 -5 3 -12 0 -15 -6 -2 -7 -8 -9 -13
-5 -5 4 -2 12 6 17 19 12 17 12 26 -2z m-8722 -20 c-8 -27 -12 -33 -19 -27 -7
8 7 49 17 49 5 0 6 -10 2 -22z m5250 -18 c14 0 76 -47 69 -53 -12 -13 -51 -7
-64 9 -12 15 -11 16 11 10 14 -3 1 5 -27 19 -51 24 -72 42 -35 28 15 -6 16 -5
2 13 -11 14 -8 14 11 -3 14 -13 29 -23 33 -23z m60 15 c31 -20 32 -25 8 -25
-10 0 -34 11 -53 26 -33 24 -33 25 -7 20 14 -2 38 -12 52 -21z m703 10 c0 -8
-4 -12 -9 -9 -5 3 -6 10 -3 15 9 13 12 11 12 -6z m770 9 c-3 -3 -12 -4 -19 -1
-8 3 -5 6 6 6 11 1 17 -2 13 -5z m-2484 -16 c-2 -5 -13 -8 -23 -8 -10 0 -21 3
-23 8 -3 4 8 7 23 7 15 0 26 -3 23 -7z m1810 5 c3 -5 2 -16 -2 -25 -5 -15 -8
-13 -18 7 -9 20 -8 25 2 25 8 0 16 -3 18 -7z m1252 -3 c-3 -5 -13 -10 -21 -10
-8 0 -12 5 -9 10 3 6 13 10 21 10 8 0 12 -4 9 -10z m1139 -6 c3 -8 2 -12 -4
-9 -6 3 -10 10 -10 16 0 14 7 11 14 -7z m-6423 -31 c-10 -17 -10 -16 -11 3 0
23 13 41 18 25 2 -6 -1 -18 -7 -28z m172 -50 c4 -19 2 -33 -3 -33 -6 0 -10 8
-10 18 0 13 -2 14 -9 3 -16 -24 -35 53 -20 81 l12 23 12 -30 c7 -16 15 -45 18
-62z m6317 57 c0 -11 -2 -20 -3 -20 -2 0 -14 9 -27 20 l-23 20 26 0 c20 0 27
-5 27 -20z m-8092 -1 c38 -2 49 -6 42 -13 -15 -15 -162 -10 -225 7 l-50 14 90
-3 c50 -2 114 -4 143 -5z m5542 1 c0 -5 -4 -10 -10 -10 -5 0 -10 5 -10 10 0 6
5 10 10 10 6 0 10 -4 10 -10z m-1147 -69 c-9 -13 -21 18 -16 39 7 25 7 25 13
-5 4 -16 5 -32 3 -34z m-467 34 c-11 -8 -25 -15 -30 -15 -6 1 0 7 14 15 32 19
40 18 16 0z m1406 -17 c-15 -15 -26 -4 -18 18 5 13 9 15 18 6 9 -9 9 -15 0
-24z m188 2 c0 -5 -4 -10 -10 -10 -5 0 -10 5 -10 10 0 6 5 10 10 10 6 0 10 -4
10 -10z m45 -18 c-8 -8 -25 10 -19 20 4 6 9 5 15 -3 4 -7 6 -15 4 -17z m110
18 c5 -8 11 -8 19 -1 17 14 25 5 19 -20 -4 -15 -9 -17 -18 -9 -9 8 -15 8 -20
0 -8 -13 -52 -13 -60 1 -7 11 22 38 42 39 6 0 15 -5 18 -10z m2120 0 c-3 -5
-12 -10 -18 -10 -7 0 -6 4 3 10 19 12 23 12 15 0z m-605 -15 c0 -8 -2 -15 -4
-15 -2 0 -6 7 -10 15 -3 8 -1 15 4 15 6 0 10 -7 10 -15z m31 -8 c-10 -9 -11
-8 -5 6 3 10 9 15 12 12 3 -3 0 -11 -7 -18z m473 2 c6 -5 -4 -5 -24 1 -18 5
-35 12 -39 16 -9 10 53 -6 63 -17z m-11617 -11 c-3 -8 -6 -5 -6 6 -1 11 2 17
5 13 3 -3 4 -12 1 -19z m5639 -3 c3 -14 16 -32 27 -40 24 -17 15 -20 -13 -5
-20 10 -45 70 -30 70 5 0 12 -11 16 -25z m-309 3 c-7 -4 -34 -8 -62 -8 -27 0
-55 4 -62 8 -6 4 22 7 62 7 40 0 68 -3 62 -7z m6853 2 c0 -5 -7 -10 -15 -10
-8 0 -15 5 -15 10 0 6 7 10 15 10 8 0 15 -4 15 -10z m-3110 -10 c0 -5 -4 -10
-10 -10 -5 0 -10 5 -10 10 0 6 5 10 10 10 6 0 10 -4 10 -10z m1620 -4 c-8 -8
-40 -17 -70 -20 -49 -5 -51 -4 -15 4 22 4 51 13 65 19 34 14 36 13 20 -3z
m-1460 0 c0 -2 -7 -6 -15 -10 -8 -3 -15 -1 -15 4 0 6 7 10 15 10 8 0 15 -2 15
-4z m968 -21 c-3 -3 -9 2 -12 12 -6 14 -5 15 5 6 7 -7 10 -15 7 -18z m345 8
c-7 -2 -19 -2 -25 0 -7 3 -2 5 12 5 14 0 19 -2 13 -5z m-2243 -13 c0 -5 -4
-10 -10 -10 -5 0 -10 5 -10 10 0 6 5 10 10 10 6 0 10 -4 10 -10z m717 -25 c0
-8 -4 -15 -9 -15 -10 0 -11 14 -1 23 9 10 10 9 10 -8z m1703 -32 c0 -4 -5 -2
-12 5 -9 9 -15 8 -28 -3 -11 -10 -24 -12 -45 -6 l-30 8 38 7 c22 4 37 13 37
21 0 11 5 10 20 -5 11 -11 20 -23 20 -27z m-4996 31 c9 -3 16 -12 16 -20 0
-19 -6 -18 -30 6 -20 20 -15 25 14 14z m4268 -9 c9 4 19 2 23 -4 6 -10 -2 -13
-48 -15 -10 -1 -22 -8 -27 -16 -5 -8 -12 -12 -15 -8 -4 3 4 17 17 30 13 13 26
20 29 15 3 -4 13 -5 21 -2z m-1727 -15 c-3 -5 -10 -10 -16 -10 -5 0 -9 5 -9
10 0 6 7 10 16 10 8 0 12 -4 9 -10z m2535 -11 c0 -4 -13 -7 -30 -6 -16 1 -30
7 -30 13 0 6 13 9 30 6 17 -2 30 -8 30 -13z m347 -11 c-3 -8 -6 -5 -6 6 -1 11
2 17 5 13 3 -3 4 -12 1 -19z m-1087 -2 c0 -11 -19 -15 -25 -6 -3 5 1 10 9 10
9 0 16 -2 16 -4z m1095 -86 c3 -5 2 -10 -4 -10 -5 0 -13 5 -16 10 -3 6 -2 10
4 10 5 0 13 -4 16 -10z m-1103 -32 c-9 -9 -15 -9 -24 0 -9 9 -7 12 12 12 19 0
21 -3 12 -12z m1308 -38 c0 -5 -2 -10 -4 -10 -3 0 -8 5 -11 10 -3 6 -1 10 4
10 6 0 11 -4 11 -10z m-313 -25 c-9 -19 -13 -21 -15 -9 -3 13 12 33 25 34 0 0
-4 -11 -10 -25z m-5907 -80 c0 -8 -4 -15 -10 -15 -5 0 -7 7 -4 15 4 8 8 15 10
15 2 0 4 -7 4 -15z m6960 -351 c0 -8 -4 -12 -10 -9 -5 3 -10 13 -10 21 0 8 5
12 10 9 6 -3 10 -13 10 -21z m-7331 -159 l-24 -55 -207 0 -208 0 0 23 c1 19 2
20 10 5 8 -12 17 -15 38 -9 15 4 45 6 66 3 29 -3 43 0 52 12 10 14 26 16 103
12 53 -3 91 -1 91 5 0 5 8 9 18 10 10 0 12 3 5 6 -28 11 -12 25 21 20 29 -5
35 -2 40 16 3 12 8 18 12 14 4 -3 -4 -31 -17 -62z m67 6 c-29 -54 -12 -70 31
-29 16 15 36 22 61 22 67 -1 183 -17 188 -25 3 -5 60 -9 127 -10 78 0 115 -4
102 -9 -11 -5 -140 -9 -287 -9 l-267 -1 27 55 c15 30 28 50 30 45 2 -5 -4 -22
-12 -39z m-192 10 c3 -5 -8 -11 -24 -13 -20 -3 -30 0 -30 9 0 14 46 18 54 4z
m6664 -4 c6 -5 12 -4 12 0 0 5 16 9 35 9 19 0 35 -3 35 -7 0 -4 13 -9 29 -11
17 -2 28 -1 25 4 -7 12 100 5 108 -7 5 -6 8 -5 8 3 0 6 5 12 11 12 5 0 7 -4 4
-10 -3 -5 0 -10 9 -10 8 0 17 6 20 13 5 10 7 10 12 0 3 -7 12 -13 20 -13 9 0
13 -4 10 -8 -3 -5 -108 -9 -233 -10 -125 -1 -311 -4 -412 -8 -134 -5 -182 -3
-177 5 4 6 13 11 19 11 7 0 23 6 37 13 14 7 50 12 80 11 30 0 63 2 72 5 25 9
261 7 276 -2z m-7025 -43 l29 -24 -50 0 c-48 0 -50 1 -54 31 -4 28 -3 30 20
24 14 -3 39 -17 55 -31z m-109 0 c3 -8 -1 -17 -9 -20 -8 -4 -15 -14 -15 -24 0
-11 -4 -21 -10 -25 -5 -3 -6 -14 -2 -25 9 -24 3 -180 -7 -180 -4 0 -7 44 -7
97 1 89 -1 97 -19 102 -21 6 -24 27 -11 67 8 26 71 32 80 8z m1248 -74 c21
-22 21 -27 14 -255 -6 -211 -9 -239 -30 -293 -39 -98 -42 -102 -54 -59 -6 21
-22 51 -36 68 -24 29 -26 37 -25 132 0 56 4 144 7 195 4 55 3 97 -2 103 -6 5
-126 9 -288 9 -311 0 -292 -5 -258 74 l19 46 223 3 c375 6 405 4 430 -23z
m5573 15 c6 -2 -89 -3 -210 -2 l-220 1 175 6 c164 5 231 3 255 -5z m95 5 c0
-5 -15 -10 -34 -10 -19 0 -38 5 -41 10 -4 6 10 10 34 10 23 0 41 -4 41 -10z
m100 0 c0 -5 -13 -10 -30 -10 -16 0 -30 5 -30 10 0 6 14 10 30 10 17 0 30 -4
30 -10z m100 0 c-36 -4 -69 -3 -74 2 -6 4 24 7 65 6 l74 -1 -65 -7z m253 3
c-35 -2 -91 -2 -125 0 -35 2 -7 3 62 3 69 0 97 -1 63 -3z m210 0 c-7 -2 -19
-2 -25 0 -7 3 -2 5 12 5 14 0 19 -2 13 -5z m-7033 -19 c0 -9 -12 -37 -27 -61
l-28 -45 -133 6 c-138 5 -152 8 -152 32 0 8 -4 14 -10 14 -5 0 -10 -9 -10 -20
0 -17 -7 -20 -45 -20 l-45 0 0 -97 c0 -53 -3 -94 -6 -90 -4 3 -12 52 -20 108
-7 56 -16 105 -21 110 -4 4 -6 -33 -2 -83 3 -50 1 -114 -3 -142 -5 -28 -14
-94 -22 -146 -8 -52 -14 -79 -15 -60 -1 19 -5 71 -8 115 -8 109 -4 332 7 361
5 12 19 24 32 27 13 2 132 5 266 5 219 2 242 1 242 -14z m5827 10 c-3 -3 -12
-4 -19 -1 -8 3 -5 6 6 6 11 1 17 -2 13 -5z m1136 -45 c37 -1 67 -5 67 -9 0 -4
21 -1 48 5 34 9 49 9 54 1 14 -21 8 -34 -14 -34 -13 1 -299 -3 -637 -7 -528
-7 -613 -6 -606 6 4 8 -3 4 -16 -9 -20 -19 -24 -31 -22 -77 1 -30 -2 -55 -8
-55 -5 0 -9 -5 -9 -11 0 -5 5 -7 10 -4 6 3 10 -2 11 -12 5 -141 5 -214 -1
-218 -5 -3 -10 2 -14 10 -3 8 0 15 7 15 8 0 8 3 -2 9 -9 6 -12 20 -9 40 3 18
1 34 -4 37 -14 9 -9 24 9 24 15 0 15 2 -2 14 -17 12 -18 16 -5 32 8 10 11 15
5 12 -6 -4 -10 26 -11 83 -1 48 3 86 7 83 5 -3 11 7 15 21 6 24 10 25 58 23
28 -1 57 1 63 5 7 4 22 3 33 -3 11 -6 20 -7 20 -2 0 4 19 8 43 9 23 0 217 4
432 8 214 3 392 8 394 10 2 3 7 3 10 0 4 -2 37 -5 74 -6z m440 -28 c4 -18 6
-38 4 -44 -2 -7 2 -18 9 -25 11 -10 11 -17 2 -31 -9 -15 -8 -22 5 -36 21 -20
21 -23 2 -42 -12 -11 -13 -18 -4 -29 6 -7 7 -19 3 -26 -15 -23 -10 -78 5 -78
12 0 12 -3 3 -12 -7 -7 -12 -29 -12 -50 0 -31 -4 -38 -19 -38 -11 0 -21 -6
-24 -12 -2 -7 -8 -10 -12 -6 -4 4 -2 15 6 24 7 9 13 27 12 40 -1 13 -1 33 -2
45 -1 11 -5 18 -10 15 -5 -3 -11 1 -14 9 -4 10 -1 12 10 8 13 -5 14 -3 3 17
-9 16 -14 19 -20 10 -5 -8 -10 -9 -14 -2 -4 6 3 16 15 23 16 8 19 13 9 19 -20
12 -23 80 -5 80 8 0 15 7 15 16 0 11 -6 13 -19 9 -11 -3 -22 -1 -26 5 -4 7 2
14 14 17 24 6 29 33 5 33 -18 0 -44 23 -44 40 0 6 -10 15 -22 19 -21 8 -22 10
-4 16 11 5 21 3 27 -6 8 -13 13 -6 10 14 0 4 4 7 10 7 6 0 9 -7 5 -15 -3 -10
1 -15 13 -15 11 0 21 9 24 21 8 30 30 19 40 -20z m-157 17 c5 -7 1 -9 -9 -5
-9 3 -17 2 -19 -3 -5 -13 -60 -17 -65 -4 -2 7 7 10 27 8 17 -2 29 0 26 4 -2 4
4 8 14 9 11 1 23 -3 26 -9z m-1550 -23 c6 -6 14 -21 18 -32 7 -21 8 -21 25 -5
9 9 16 26 14 37 -3 18 -3 18 6 -2 14 -32 30 -280 21 -328 -1 -5 -1 -20 0 -32
2 -29 -16 -30 -23 -1 -4 12 -9 19 -13 15 -12 -12 -12 -51 0 -59 8 -6 7 -10 -2
-17 -19 -11 -12 -76 8 -76 11 0 14 10 13 39 -2 28 0 37 8 29 12 -12 18 -143 7
-143 -10 0 -27 42 -22 51 2 4 -3 10 -12 13 -11 4 -14 1 -9 -13 6 -20 -20 -55
-34 -46 -10 6 -24 93 -27 165 -1 30 -5 70 -9 88 -5 24 -4 32 6 32 11 0 11 2
-1 10 -10 6 -15 29 -15 74 -1 36 2 63 7 60 4 -3 8 -1 8 5 0 5 -5 13 -10 16 -6
4 -10 35 -8 71 2 51 5 63 18 61 8 -1 20 -7 26 -12z m1741 -267 c-3 -8 -6 -5
-6 6 -1 11 2 17 5 13 3 -3 4 -12 1 -19z m-76 -109 c-5 -13 -10 -19 -10 -12 -1
15 10 45 15 40 3 -2 0 -15 -5 -28z m-1511 -105 c0 -24 -4 -44 -10 -44 -6 0 -8
15 -4 36 3 21 1 41 -7 50 -10 12 -9 13 5 8 11 -4 16 -19 16 -50z m1570 36 c0
-5 3 -16 7 -26 4 -12 3 -15 -5 -10 -7 4 -12 1 -12 -8 0 -8 8 -20 18 -25 9 -6
11 -11 5 -11 -7 0 -13 -9 -13 -21 0 -14 -5 -19 -14 -16 -8 3 -17 1 -20 -6 -2
-7 -5 2 -5 20 -1 27 2 31 17 26 15 -6 15 -5 4 10 -8 9 -11 21 -7 27 3 5 1 10
-5 10 -6 0 -8 5 -5 10 3 6 2 10 -3 10 -5 0 -12 -9 -15 -20 -3 -11 -1 -20 3
-20 4 0 6 -9 3 -20 -7 -27 -15 -18 -20 20 -2 20 4 36 18 49 20 18 49 19 49 1z
m-1570 -100 c0 -5 -2 -10 -4 -10 -3 0 -8 5 -11 10 -3 6 -1 10 4 10 6 0 11 -4
11 -10z m-123 -42 c-2 -7 3 -18 12 -25 14 -10 13 -13 -9 -22 -14 -5 -18 -10
-10 -10 19 -1 22 -61 3 -61 -17 0 -16 -8 2 -27 13 -12 13 -18 3 -31 -10 -12
-10 -16 0 -19 13 -5 17 -53 3 -53 -18 0 -42 208 -27 245 7 18 29 20 23 3z
m123 2 c0 -5 -4 -10 -10 -10 -5 0 -10 5 -10 10 0 6 5 10 10 10 6 0 10 -4 10
-10z m1520 -5 c0 -8 -2 -15 -4 -15 -2 0 -6 7 -10 15 -3 8 -1 15 4 15 6 0 10
-7 10 -15z m54 -11 c4 -10 1 -14 -6 -12 -15 5 -23 28 -10 28 5 0 13 -7 16 -16z
m3 -85 c0 -28 -2 -30 -13 -14 -10 13 -10 20 -1 31 7 7 12 13 13 14 0 0 1 -14
1 -31z m-1563 -15 c3 -8 2 -12 -4 -9 -6 3 -10 10 -10 16 0 14 7 11 14 -7z
m1565 -77 c1 -10 -3 -16 -7 -13 -5 3 -9 20 -9 38 -1 27 1 29 7 13 5 -11 9 -28
9 -38z m-11489 33 c21 -11 25 -66 6 -78 -18 -11 -70 -11 -83 0 -14 11 -18 70
-6 81 10 10 62 8 83 -3z m9810 -164 c0 -3 -4 -8 -10 -11 -5 -3 -10 -1 -10 4 0
6 5 11 10 11 6 0 10 -2 10 -4z m-9885 -69 c0 -26 -20 -25 -23 2 -3 16 1 22 10
19 7 -3 13 -12 13 -21z m10393 -341 c8 -4 124 -13 302 -22 104 -5 130 -10 130
-26 0 -6 -8 -7 -17 -3 -10 4 -54 8 -98 10 -77 2 -209 10 -385 21 -148 10 -272
22 -278 29 -7 7 335 -2 346 -9z m485 -37 c17 -8 31 -8 43 -1 14 7 23 6 32 -5
12 -12 5 -14 -49 -11 -39 2 -64 8 -67 16 -5 15 10 15 41 1z m267 -21 c0 -10
-160 -6 -166 4 -3 5 33 7 80 6 47 -1 86 -6 86 -10z m40 -2 c0 -2 -7 -6 -15
-10 -8 -3 -15 -1 -15 4 0 6 7 10 15 10 8 0 15 -2 15 -4z m35 -6 c3 -5 -1 -10
-9 -10 -9 0 -16 5 -16 10 0 6 4 10 9 10 6 0 13 -4 16 -10z m-11248 -66 c-3 -3
-12 -4 -19 -1 -8 3 -5 6 6 6 11 1 17 -2 13 -5z m-140 -20 c-3 -3 -12 -4 -19
-1 -8 3 -5 6 6 6 11 1 17 -2 13 -5z"/>
<path d="M13705 3360 c-7 -11 38 -24 57 -18 7 3 -2 10 -20 16 -18 6 -34 7 -37
2z"/>
<path d="M12550 3280 c0 -5 7 -10 15 -10 8 0 15 5 15 10 0 6 -7 10 -15 10 -8
0 -15 -4 -15 -10z"/>
<path d="M12571 3244 c0 -11 3 -14 6 -6 3 7 2 16 -1 19 -3 4 -6 -2 -5 -13z"/>
<path d="M12566 3205 c-3 -9 -5 -31 -5 -48 1 -27 3 -24 9 13 8 48 6 61 -4 35z"/>
<path d="M11468 2953 c7 -3 16 -2 19 1 4 3 -2 6 -13 5 -11 0 -14 -3 -6 -6z"/>
<path d="M11885 2900 c3 -19 10 -39 15 -44 15 -15 12 14 -6 49 l-14 30 5 -35z"/>
<path d="M14340 2991 c0 -17 18 -21 24 -6 3 9 0 15 -9 15 -8 0 -15 -4 -15 -9z"/>
<path d="M7952 2695 c0 -16 2 -22 5 -12 2 9 2 23 0 30 -3 6 -5 -1 -5 -18z"/>
<path d="M6402 1666 c7 -8 15 -12 17 -11 5 6 -10 25 -20 25 -5 0 -4 -6 3 -14z"/>
<path d="M12730 1511 c0 -5 7 -12 16 -15 14 -5 15 -4 4 9 -14 17 -20 19 -20 6z"/>
<path d="M12720 1480 c0 -5 5 -10 10 -10 6 0 10 5 10 10 0 6 -4 10 -10 10 -5
0 -10 -4 -10 -10z"/>
<path d="M12748 1464 c-5 -4 -8 -16 -8 -28 0 -14 3 -17 11 -9 6 6 9 19 7 28
-1 9 -6 13 -10 9z"/>
<path d="M12745 1367 c-4 -10 -5 -21 -1 -24 10 -10 18 4 13 24 -4 17 -4 17
-12 0z"/>
<path d="M12753 1302 c-13 -8 -11 -47 2 -47 5 0 9 12 9 28 1 15 2 27 1 27 0 0
-5 -4 -12 -8z"/>
<path d="M6160 3605 c0 -74 3 -95 14 -95 20 0 31 81 13 95 -11 8 -11 14 0 35
19 37 16 60 -7 60 -19 0 -20 -7 -20 -95z"/>
<path d="M8111 3658 c-10 -24 -21 -54 -26 -68 -4 -14 -32 -75 -62 -137 -67
-137 -68 -179 -1 -71 37 61 138 289 138 313 0 3 -7 5 -15 5 -9 0 -24 -19 -34
-42z"/>
<path d="M9077 3650 c-3 -11 -1 -20 4 -20 5 0 9 9 9 20 0 11 -2 20 -4 20 -2 0
-6 -9 -9 -20z"/>
<path d="M11042 3600 c1 -16 5 -30 9 -30 5 0 6 -7 3 -15 -7 -16 4 -19 22 -7
15 10 25 42 13 42 -6 0 -7 5 -3 11 3 6 0 15 -7 20 -26 16 -38 9 -37 -21z"/>
<path d="M11130 3619 c0 -5 -4 -8 -9 -4 -5 3 -12 1 -15 -4 -3 -5 1 -12 10 -15
25 -10 31 -7 37 14 3 13 0 20 -9 20 -8 0 -14 -5 -14 -11z"/>
<path d="M12423 3604 c-18 -20 -21 -30 -13 -45 6 -10 7 -19 3 -19 -4 0 -1 -4
7 -10 19 -12 40 6 40 34 0 11 4 28 10 36 6 9 5 17 -3 22 -17 11 -20 10 -44
-18z"/>
<path d="M12928 3603 c7 -3 16 -2 19 1 4 3 -2 6 -13 5 -11 0 -14 -3 -6 -6z"/>
<path d="M6360 3528 c0 -16 5 -28 10 -28 13 0 13 20 0 40 -8 12 -10 9 -10 -12z"/>
<path d="M11147 3523 c-12 -11 -8 -20 17 -36 22 -15 24 -15 29 4 4 16 2 19
-15 13 -17 -5 -20 -3 -15 10 6 16 -4 22 -16 9z"/>
<path d="M6275 3510 c3 -5 8 -10 11 -10 2 0 4 5 4 10 0 6 -5 10 -11 10 -5 0
-7 -4 -4 -10z"/>
<path d="M12585 3510 c3 -5 8 -10 11 -10 2 0 4 5 4 10 0 6 -5 10 -11 10 -5 0
-7 -4 -4 -10z"/>
<path d="M10797 3504 c-3 -3 -3 -12 0 -20 6 -16 43 -19 43 -4 0 12 -35 31 -43
24z"/>
<path d="M6192 3493 c-1 -6 -8 -18 -15 -25 -9 -9 -12 -36 -9 -90 2 -43 7 -76
11 -74 3 2 7 -30 7 -71 2 -104 20 -115 23 -14 1 54 -4 93 -14 117 -11 26 -12
40 -5 50 6 7 9 36 7 66 -2 29 -4 48 -5 41z"/>
<path d="M13201 3481 c-26 -14 -30 -19 -17 -24 9 -4 16 -2 16 4 0 6 4 8 9 5
13 -8 21 -89 10 -103 -7 -8 -7 -19 1 -34 8 -14 8 -19 1 -15 -6 4 -11 3 -11 -3
0 -5 6 -12 13 -14 6 -3 -1 -6 -16 -6 -41 -1 -28 -23 16 -28 32 -3 37 -1 37 17
0 12 -4 18 -10 15 -5 -3 -10 -2 -10 4 0 5 5 11 11 13 6 2 11 40 12 93 2 101
-2 106 -62 76z"/>
<path d="M11111 3463 c7 -10 14 -19 15 -21 1 -1 7 4 14 13 11 13 10 14 -5 9
-13 -5 -16 -4 -11 4 4 7 1 12 -10 12 -14 0 -15 -2 -3 -17z"/>
<path d="M6366 3453 c-3 -8 -1 -23 4 -33 6 -10 10 -46 10 -79 0 -34 4 -61 10
-61 15 0 24 71 11 92 -8 13 -8 24 -1 38 5 10 10 25 10 33 0 20 -37 29 -44 10z"/>
<path d="M11048 3453 c7 -3 16 -2 19 1 4 3 -2 6 -13 5 -11 0 -14 -3 -6 -6z"/>
<path d="M11236 3452 c-4 -7 -5 -12 -2 -12 2 0 11 -3 20 -6 9 -3 16 -1 16 6 0
6 -4 9 -9 6 -5 -4 -11 -1 -13 6 -3 9 -6 9 -12 0z"/>
<path d="M7143 3439 c23 -14 22 -28 -3 -22 -35 9 -52 -15 -45 -61 9 -53 29
-84 63 -97 44 -17 88 -3 110 35 14 23 26 33 43 32 29 -1 37 28 16 52 -8 9 -17
28 -19 42 -3 23 -6 24 -93 27 -66 2 -85 0 -72 -8z m81 -101 c-3 -13 -7 -23 -8
-24 0 0 -13 -8 -28 -17 -23 -14 -26 -15 -22 -2 4 8 10 15 15 15 5 0 15 11 21
25 14 31 32 33 22 3z"/>
<path d="M8955 3441 c-95 -7 -146 -26 -165 -61 -12 -23 -66 -53 -80 -45 -6 3
-10 12 -10 20 0 14 -64 75 -79 75 -9 0 -51 -52 -70 -87 -6 -12 -16 -69 -23
-125 l-11 -103 -77 -1 -77 -1 -6 98 c-5 98 -21 149 -63 204 -25 33 -98 25
-140 -16 -52 -51 -69 -113 -68 -254 0 -108 3 -129 32 -213 48 -139 121 -234
148 -191 4 8 0 9 -15 4 -17 -5 -21 -2 -21 14 0 12 -4 21 -10 21 -5 0 -10 7
-10 15 0 18 9 19 44 5 29 -11 33 -3 11 26 -18 24 -19 41 -1 41 8 0 12 -6 8
-15 -4 -10 -1 -13 7 -8 8 5 14 1 18 -12 4 -16 50 -38 60 -28 2 1 -3 17 -9 34
-11 28 -10 33 7 47 15 10 16 14 6 15 -33 0 7 19 54 26 27 3 61 10 74 15 13 5
26 7 28 5 3 -3 9 -39 14 -82 4 -42 16 -100 25 -128 24 -75 65 -166 75 -166 12
0 11 7 -1 31 -14 26 -3 24 22 -3 l19 -23 -6 35 c-9 51 -23 175 -29 250 -2 36
-7 77 -11 91 -4 15 -2 30 4 33 6 4 12 -13 16 -41 4 -27 11 -72 16 -102 5 -30
10 -71 10 -90 l2 -36 7 35 c4 19 8 31 10 25 1 -5 6 1 10 15 6 17 8 -1 9 -57 1
-45 6 -85 11 -88 6 -3 11 -21 11 -38 1 -18 5 1 9 41 5 40 16 91 26 115 15 35
19 71 19 215 1 156 3 173 20 186 16 11 24 11 52 0 18 -8 43 -14 56 -14 24 0
24 -1 31 -152 4 -84 8 -166 10 -183 1 -16 3 -55 5 -85 2 -48 6 -58 34 -80 27
-22 30 -22 24 -5 -8 18 -7 18 13 0 25 -23 25 -32 -1 -40 -11 -4 -18 -9 -15
-12 3 -3 19 0 35 6 24 10 34 10 59 -3 28 -15 30 -14 35 5 3 11 14 23 24 25 11
3 20 15 21 28 3 39 21 78 33 70 11 -6 6 348 -6 446 l-6 45 66 40 c36 22 65 43
65 47 0 3 3 13 6 22 4 11 0 16 -12 16 -16 0 -17 2 -4 10 8 5 11 10 5 10 -5 0
1 7 13 16 22 15 24 15 36 -2 9 -11 19 -15 31 -10 28 10 7 25 -77 53 -81 28
-219 37 -383 24z m345 -101 c0 -6 -25 -10 -57 -9 -44 1 -52 3 -33 9 36 12 90
12 90 0z m-671 -50 c0 -9 -4 -8 -9 5 -5 11 -9 27 -9 35 0 9 4 8 9 -5 5 -11 9
-27 9 -35z m521 40 c0 -5 -9 -10 -20 -10 -11 0 -20 -4 -20 -9 0 -9 -37 -23
-95 -36 l-30 -6 20 20 c11 11 45 26 75 34 69 19 70 19 70 7z m20 -19 c0 -12
-20 -25 -27 -18 -7 7 6 27 18 27 5 0 9 -4 9 -9z m146 -8 c-7 -7 -138 -42 -160
-43 -29 -1 17 21 69 34 68 16 102 20 91 9z m-556 -23 c-20 -13 -33 -13 -25 0
3 6 14 10 23 10 15 0 15 -2 2 -10z m-142 -135 l-1 -50 -7 50 c-5 28 -8 70 -8
95 l1 45 8 -45 c4 -25 7 -67 7 -95z m505 124 c-6 -6 -30 -13 -54 -15 l-44 -4
40 14 c51 18 73 20 58 5z m-546 -106 c-3 -10 -5 -4 -5 12 0 17 2 24 5 18 2 -7
2 -21 0 -30z m228 27 c3 -5 -1 -10 -10 -10 -9 0 -13 5 -10 10 3 6 8 10 10 10
2 0 7 -4 10 -10z m315 -50 c0 -5 -4 -10 -10 -10 -5 0 -10 5 -10 10 0 6 5 10
10 10 6 0 10 -4 10 -10z m-29 -87 c1 -63 3 -71 9 -43 5 19 6 -24 3 -97 -6
-145 5 -214 39 -237 18 -13 17 -14 -11 -11 -44 3 -58 20 -72 83 -17 82 1 382
22 382 5 0 10 -35 10 -77z m-884 5 c-3 -8 -6 -5 -6 6 -1 11 2 17 5 13 3 -3 4
-12 1 -19z m393 2 c-11 -7 -7 -10 17 -10 36 0 51 -16 33 -33 -10 -9 -14 -9
-17 1 -7 18 -20 15 -26 -8 -4 -17 -14 -20 -63 -20 -31 0 -96 -7 -144 -17 -81
-15 -140 -13 -140 6 0 11 46 31 73 31 12 0 35 7 51 15 16 9 55 15 90 15 33 0
72 7 86 14 30 17 65 22 40 6z m527 -192 c-3 -8 -6 -5 -6 6 -1 11 2 17 5 13 3
-3 4 -12 1 -19z m0 -90 c-2 -13 -4 -3 -4 22 0 25 2 35 4 23 2 -13 2 -33 0 -45z
m-12 -138 c3 -5 1 -10 -4 -10 -6 0 -11 5 -11 10 0 6 2 10 4 10 3 0 8 -4 11
-10z"/>
<path d="M9076 2938 c-8 -30 -8 -167 0 -207 4 -17 11 -31 16 -31 6 0 7 11 3
27 -4 16 -6 74 -6 130 1 57 -1 103 -3 103 -2 0 -6 -10 -10 -22z"/>
<path d="M8425 3020 c-16 -4 -41 -13 -55 -19 -21 -9 -17 -10 25 -4 28 3 59 9
69 13 29 10 -2 18 -39 10z"/>
<path d="M11220 3420 c-9 -6 -10 -10 -3 -10 6 0 15 5 18 10 8 12 4 12 -15 0z"/>
<path d="M11137 3391 c-3 -13 -1 -18 9 -14 7 2 10 11 7 19 -7 19 -10 18 -16
-5z"/>
<path d="M7925 3325 c-18 -30 -24 -50 -18 -56 7 -7 18 8 32 41 29 67 21 75
-14 15z"/>
<path d="M12120 3368 c0 -2 9 -11 19 -20 18 -15 20 -15 26 0 3 9 3 13 -1 10
-4 -4 -15 -3 -25 3 -11 5 -19 8 -19 7z"/>
<path d="M6300 3329 c0 -16 4 -28 9 -25 8 5 3 56 -5 56 -2 0 -4 -14 -4 -31z"/>
<path d="M9398 3343 c-10 -2 -18 -9 -18 -14 0 -6 8 -5 20 1 11 6 20 13 20 15
0 3 -1 4 -2 4 -2 -1 -11 -3 -20 -6z"/>
<path d="M11855 3329 c-4 -6 -5 -12 -2 -15 2 -3 7 2 10 11 7 17 1 20 -8 4z"/>
<path d="M6475 3305 c-16 -8 -37 -19 -45 -24 -8 -5 -23 -12 -32 -15 -14 -4
-16 -16 -13 -73 2 -37 6 -81 9 -98 5 -30 -11 -102 -26 -120 -14 -16 -9 -25 13
-25 19 0 21 -4 16 -40 -4 -28 -1 -43 10 -52 14 -11 15 -6 10 47 -9 77 6 44 23
-53 8 -40 17 -75 22 -78 4 -3 8 -13 8 -23 0 -21 40 -61 62 -61 9 0 25 16 37
35 11 19 24 35 29 35 5 0 7 25 4 55 -4 50 -3 55 16 55 29 0 110 -67 162 -135
44 -57 45 -60 47 -138 1 -44 -2 -88 -8 -98 -7 -14 -6 -17 4 -13 8 3 17 -2 20
-11 10 -24 -4 -76 -22 -83 -9 -3 -22 -12 -29 -19 -11 -11 -9 -15 11 -22 13 -5
27 -17 31 -27 6 -15 8 -15 24 -2 9 9 22 14 27 12 6 -3 29 13 51 33 34 33 40
45 42 85 2 38 -1 49 -20 62 -18 13 -19 16 -5 16 9 0 17 6 17 13 0 7 9 20 19
29 12 10 25 41 32 78 6 33 16 63 21 66 5 3 4 12 -3 20 -10 12 -8 45 5 157 21
164 18 240 -12 316 -27 69 -49 93 -81 89 -25 -3 -26 -6 -26 -61 0 -32 -1 -54
-3 -48 -10 29 -21 4 -27 -59 -4 -39 -11 -73 -17 -76 -5 -4 -26 9 -46 28 -78
72 -144 120 -178 129 -27 8 -38 18 -51 50 -23 59 -65 74 -128 44z m-78 -167
c-3 -8 -6 -5 -6 6 -1 11 2 17 5 13 3 -3 4 -12 1 -19z m593 -384 c-13 -100 -20
-119 -20 -51 0 45 20 150 27 143 2 -2 -1 -43 -7 -92z m-68 -68 c2 -19 0 -32
-4 -30 -8 5 -12 64 -4 64 2 0 6 -15 8 -34z m41 -91 c-7 -21 -13 -19 -13 6 0
11 4 18 10 14 5 -3 7 -12 3 -20z m-51 -95 c30 -7 29 -8 -18 -9 -49 -1 -51 0
-51 24 0 24 1 25 18 9 10 -9 33 -20 51 -24z m-17 -100 c3 -5 1 -10 -4 -10 -6
0 -11 5 -11 10 0 6 2 10 4 10 3 0 8 -4 11 -10z"/>
<path d="M13169 3231 c-5 -29 -3 -34 12 -36 12 -2 15 3 12 16 -6 22 -22 35
-24 20z"/>
<path d="M13201 3018 c-8 -13 -12 -24 -10 -24 2 -1 -4 -11 -14 -22 -16 -17
-16 -23 -5 -41 7 -12 19 -19 26 -16 8 3 26 5 40 6 l27 1 -25 8 c-18 6 -20 8
-7 9 15 1 18 9 15 48 -3 54 -24 68 -47 31z"/>
<path d="M6320 2998 c0 -7 5 -20 10 -28 8 -12 10 -9 10 13 0 15 -4 27 -10 27
-5 0 -10 -6 -10 -12z"/>
<path d="M9505 2940 c3 -5 8 -10 11 -10 2 0 4 5 4 10 0 6 -5 10 -11 10 -5 0
-7 -4 -4 -10z"/>
<path d="M13215 2841 c-7 -12 31 -25 45 -16 5 3 10 10 10 16 0 12 -47 12 -55
0z"/>
<path d="M6386 2821 c-8 -13 5 -71 16 -71 5 0 8 8 6 18 -2 9 3 16 10 15 15 -4
16 19 0 35 -14 14 -25 15 -32 3z"/>
<path d="M6351 2804 c0 -11 3 -14 6 -6 3 7 2 16 -1 19 -3 4 -6 -2 -5 -13z"/>
<path d="M8240 2785 c0 -2 9 -9 20 -15 16 -8 26 -7 42 5 19 12 19 15 5 15 -9
0 -17 -5 -17 -12 0 -9 -3 -9 -12 0 -12 12 -38 17 -38 7z"/>
<path d="M13236 2765 c4 -8 8 -15 10 -15 2 0 4 7 4 15 0 8 -4 15 -10 15 -5 0
-7 -7 -4 -15z"/>
<path d="M6432 2750 c0 -14 2 -19 5 -12 2 6 2 18 0 25 -3 6 -5 1 -5 -13z"/>
<path d="M8686 2698 c-5 -21 -5 -50 0 -65 l8 -28 4 33 c2 17 2 47 0 65 l-4 32
-8 -37z"/>
<path d="M6361 2675 c0 -57 34 -344 43 -352 9 -9 7 32 -4 126 -9 71 -9 89 5
117 10 21 23 34 35 34 15 0 17 6 13 43 -7 61 -8 62 -42 65 -24 2 -31 -2 -32
-15 -1 -12 -4 -10 -9 7 -6 20 -8 15 -9 -25z m26 -37 c-3 -7 -5 -2 -5 12 0 14
2 19 5 13 2 -7 2 -19 0 -25z"/>
<path d="M8970 2642 c6 -13 14 -21 18 -18 3 4 -2 14 -12 24 -18 16 -18 16 -6
-6z"/>
<path d="M6252 2605 c0 -16 2 -22 5 -12 2 9 2 23 0 30 -3 6 -5 -1 -5 -18z"/>
<path d="M8150 2575 c-6 -19 -20 -37 -31 -40 -10 -4 -19 -14 -18 -23 0 -11 3
-12 6 -4 2 6 13 12 24 12 11 0 23 10 28 23 19 50 22 67 12 67 -5 0 -15 -16
-21 -35z"/>
<path d="M8347 2603 c-9 -14 8 -33 21 -24 10 6 10 10 -2 20 -8 7 -17 8 -19 4z"/>
<path d="M8701 2588 c-1 -18 -37 -43 -44 -30 -2 4 -2 1 -1 -5 2 -7 -1 -13 -6
-13 -6 0 -10 -5 -10 -11 0 -5 6 -7 12 -3 7 5 21 9 30 9 26 2 30 10 25 42 -2
15 -5 20 -6 11z"/>
<path d="M9078 2518 c-2 -40 -1 -154 2 -253 6 -197 10 -162 16 133 2 108 -1
192 -5 192 -5 0 -11 -33 -13 -72z"/>
<path d="M6251 2475 c0 -44 4 -100 8 -125 7 -36 9 -23 10 65 0 61 -4 117 -9
125 -7 10 -10 -10 -9 -65z"/>
<path d="M8101 2473 c0 -12 -4 -28 -7 -37 -4 -10 -1 -16 9 -16 8 0 17 7 21 15
3 8 1 15 -4 15 -5 0 -11 10 -13 23 -4 22 -4 22 -6 0z"/>
<path d="M7067 2463 c-13 -12 -7 -41 13 -76 19 -32 19 -36 5 -51 -18 -17 -12
-56 8 -56 26 0 36 17 32 55 -2 22 1 45 6 52 7 8 0 22 -24 47 -18 20 -36 33
-40 29z"/>
<path d="M6412 2240 c0 -14 2 -19 5 -12 2 6 2 18 0 25 -3 6 -5 1 -5 -13z"/>
<path d="M6272 2215 c0 -16 2 -22 5 -12 2 9 2 23 0 30 -3 6 -5 -1 -5 -18z"/>
</g>
</svg>
